<svg viewBox="0 0 1400 900" xmlns="http://www.w3.org/2000/svg" preserveAspectRatio="xMidYMid slice" role="img">
<defs>
<linearGradient id="bg_ba3-after" x1="0" y1="0" x2="0.3" y2="1">
<stop offset="0" stop-color="#170f0a"/><stop offset="1" stop-color="#0c0908"/>
</linearGradient>
<radialGradient id="glow_ba3-after" cx="0.63" cy="0.22" r="0.9">
<stop offset="0" stop-color="#c9794b" stop-opacity="0.42"/>
<stop offset="0.5" stop-color="#c9794b" stop-opacity="0.10"/>
<stop offset="1" stop-color="#c9794b" stop-opacity="0"/>
</radialGradient>
<radialGradient id="vig_ba3-after" cx="0.5" cy="0.45" r="0.75">
<stop offset="0.55" stop-color="#000000" stop-opacity="0"/>
<stop offset="1" stop-color="#000000" stop-opacity="0.55"/>
</radialGradient>
<linearGradient id="fade_ba3-after" x1="0" y1="0" x2="0" y2="1">
<stop offset="0" stop-color="#0c0908" stop-opacity="0.85"/>
<stop offset="0.16" stop-color="#0c0908" stop-opacity="0"/>
<stop offset="0.84" stop-color="#0c0908" stop-opacity="0"/>
<stop offset="1" stop-color="#0c0908" stop-opacity="0.9"/>
</linearGradient>
<filter id="blur_ba3-after"><feGaussianBlur stdDeviation="6"/></filter>
<filter id="grain_ba3-after"><feTurbulence type="fractalNoise" baseFrequency="0.9" numOctaves="2" stitchTiles="stitch"/>
<feColorMatrix type="matrix" values="0 0 0 0 0  0 0 0 0 0  0 0 0 0 0  0 0 0 0.5 0"/></filter>
</defs>
<rect width="1400" height="900" fill="url(#bg_ba3-after)"/>
<rect width="1400" height="900" fill="url(#glow_ba3-after)"/>
<g filter="url(#blur_ba3-after)"><path d="M 941.3 61.2 C 941.3 103.0 957.8 103.0 957.8 144.8 C 957.8 186.7 982.2 186.7 982.2 228.5 C 982.2 270.3 1010.7 270.3 1010.7 312.1 C 1010.7 353.9 1039.6 353.9 1039.6 395.7 C 1039.6 437.6 1066.0 437.6 1066.0 479.4 C 1066.0 521.2 1087.4 521.2 1087.4 563.0 C 1087.4 604.8 1101.8 604.8 1101.8 646.6 C 1101.8 688.5 1107.4 688.5 1107.4 730.3 C 1107.4 772.1 1102.3 772.1 1102.3 813.9 " fill="none" stroke="#f0cfb8" stroke-width="5.83" stroke-linecap="round" opacity="0.12"/><path d="M 1475.3 -15.8 C 1475.3 39.2 1510.8 39.2 1510.8 94.1 C 1510.8 149.1 1555.9 149.1 1555.9 204.1 C 1555.9 259.0 1603.7 259.0 1603.7 314.0 C 1603.7 369.0 1648.4 369.0 1648.4 423.9 C 1648.4 478.9 1685.3 478.9 1685.3 533.9 C 1685.3 588.8 1710.7 588.8 1710.7 643.8 C 1710.7 698.8 1722.4 698.8 1722.4 753.7 C 1722.4 808.7 1718.7 808.7 1718.7 863.7 C 1718.7 918.6 1698.7 918.6 1698.7 973.6 " fill="none" stroke="#f0cfb8" stroke-width="4.34" stroke-linecap="round" opacity="0.06"/><path d="M 441.9 35.3 C 441.9 83.4 478.8 83.4 478.8 131.6 C 478.8 179.7 530.5 179.7 530.5 227.8 C 530.5 276.0 589.3 276.0 589.3 324.1 C 589.3 372.3 647.9 372.3 647.9 420.4 C 647.9 468.5 700.1 468.5 700.1 516.7 C 700.1 564.8 740.6 564.8 740.6 613.0 C 740.6 661.1 765.2 661.1 765.2 709.2 C 765.2 757.4 770.9 757.4 770.9 805.5 C 770.9 853.6 755.3 853.6 755.3 901.8 " fill="none" stroke="#e8b28f" stroke-width="6.27" stroke-linecap="round" opacity="0.12"/><path d="M 116.8 66.3 C 116.8 112.5 144.4 112.5 144.4 158.6 C 144.4 204.8 185.3 204.8 185.3 250.9 C 185.3 297.1 233.3 297.1 233.3 343.2 C 233.3 389.4 282.5 389.4 282.5 435.5 C 282.5 481.7 327.5 481.7 327.5 527.8 C 327.5 574.0 363.8 574.0 363.8 620.1 C 363.8 666.3 387.6 666.3 387.6 712.4 C 387.6 758.6 395.9 758.6 395.9 804.7 C 395.9 850.9 386.4 850.9 386.4 897.1 " fill="none" stroke="#f0cfb8" stroke-width="4.19" stroke-linecap="round" opacity="0.13"/><path d="M 971.5 -44.7 C 971.5 7.4 992.6 7.4 992.6 59.6 C 992.6 111.7 1025.0 111.7 1025.0 163.8 C 1025.0 216.0 1063.5 216.0 1063.5 268.1 C 1063.5 320.2 1103.4 320.2 1103.4 372.4 C 1103.4 424.5 1140.3 424.5 1140.3 476.6 C 1140.3 528.7 1170.8 528.7 1170.8 580.9 C 1170.8 633.0 1191.7 633.0 1191.7 685.1 C 1191.7 737.3 1200.3 737.3 1200.3 789.4 C 1200.3 841.5 1194.5 841.5 1194.5 893.7 " fill="none" stroke="#c9794b" stroke-width="7.86" stroke-linecap="round" opacity="0.06"/><path d="M 421.5 -5.5 C 421.5 49.0 446.2 49.0 446.2 103.5 C 446.2 158.0 474.5 158.0 474.5 212.6 C 474.5 267.1 502.0 267.1 502.0 321.6 C 502.0 376.1 525.2 376.1 525.2 430.7 C 525.2 485.2 541.9 485.2 541.9 539.7 C 541.9 594.2 550.8 594.2 550.8 648.8 C 550.8 703.3 551.5 703.3 551.5 757.8 C 551.5 812.3 543.8 812.3 543.8 866.9 C 543.8 921.4 527.4 921.4 527.4 975.9 " fill="none" stroke="#c9794b" stroke-width="3.04" stroke-linecap="round" opacity="0.10"/><path d="M 1317.4 128.4 C 1317.4 166.4 1350.7 166.4 1350.7 204.4 C 1350.7 242.4 1395.2 242.4 1395.2 280.3 C 1395.2 318.3 1444.3 318.3 1444.3 356.3 C 1444.3 394.3 1492.0 394.3 1492.0 432.3 C 1492.0 470.3 1533.2 470.3 1533.2 508.3 C 1533.2 546.3 1563.5 546.3 1563.5 584.2 C 1563.5 622.2 1579.8 622.2 1579.8 660.2 C 1579.8 698.2 1580.2 698.2 1580.2 736.2 C 1580.2 774.2 1563.3 774.2 1563.3 812.2 " fill="none" stroke="#f0cfb8" stroke-width="7.25" stroke-linecap="round" opacity="0.12"/><path d="M 147.1 -11.8 C 147.1 43.0 178.3 43.0 178.3 97.8 C 178.3 152.5 214.3 152.5 214.3 207.3 C 214.3 262.0 249.9 262.0 249.9 316.8 C 249.9 371.6 280.7 371.6 280.7 426.3 C 280.7 481.1 303.6 481.1 303.6 535.9 C 303.6 590.6 316.2 590.6 316.2 645.4 C 316.2 700.1 317.6 700.1 317.6 754.9 C 317.6 809.7 307.4 809.7 307.4 864.4 C 307.4 919.2 286.1 919.2 286.1 974.0 " fill="none" stroke="#c9794b" stroke-width="6.84" stroke-linecap="round" opacity="0.09"/><path d="M 263.4 93.4 C 263.4 133.0 287.1 133.0 287.1 172.7 C 287.1 212.3 318.1 212.3 318.1 252.0 C 318.1 291.7 351.6 291.7 351.6 331.3 C 351.6 371.0 383.3 371.0 383.3 410.6 C 383.3 450.3 410.0 450.3 410.0 490.0 C 410.0 529.6 429.3 529.6 429.3 569.3 C 429.3 608.9 439.4 608.9 439.4 648.6 C 439.4 688.3 439.0 688.3 439.0 727.9 C 439.0 767.6 427.0 767.6 427.0 807.3 " fill="none" stroke="#c9794b" stroke-width="4.64" stroke-linecap="round" opacity="0.07"/><path d="M 1042.4 106.8 C 1042.4 151.0 1074.6 151.0 1074.6 195.3 C 1074.6 239.6 1120.3 239.6 1120.3 283.8 C 1120.3 328.1 1172.6 328.1 1172.6 372.4 C 1172.6 416.6 1225.0 416.6 1225.0 460.9 C 1225.0 505.1 1272.0 505.1 1272.0 549.4 C 1272.0 593.7 1308.8 593.7 1308.8 637.9 C 1308.8 682.2 1331.9 682.2 1331.9 726.5 C 1331.9 770.7 1338.3 770.7 1338.3 815.0 C 1338.3 859.3 1325.7 859.3 1325.7 903.5 " fill="none" stroke="#8f4f2f" stroke-width="6.85" stroke-linecap="round" opacity="0.05"/><path d="M 423.8 64.4 C 423.8 115.6 456.0 115.6 456.0 166.8 C 456.0 218.0 497.2 218.0 497.2 269.2 C 497.2 320.4 541.4 320.4 541.4 371.6 C 541.4 422.8 583.3 422.8 583.3 474.0 C 583.3 525.2 618.3 525.2 618.3 576.5 C 618.3 627.7 642.7 627.7 642.7 678.9 C 642.7 730.1 654.2 730.1 654.2 781.3 C 654.2 832.5 651.1 832.5 651.1 883.7 C 651.1 934.9 633.0 934.9 633.0 986.1 " fill="none" stroke="#f0cfb8" stroke-width="3.94" stroke-linecap="round" opacity="0.09"/><path d="M 1257.8 27.9 C 1257.8 73.0 1279.6 73.0 1279.6 118.2 C 1279.6 163.3 1314.4 163.3 1314.4 208.4 C 1314.4 253.6 1356.5 253.6 1356.5 298.7 C 1356.5 343.8 1400.8 343.8 1400.8 389.0 C 1400.8 434.1 1442.6 434.1 1442.6 479.2 C 1442.6 524.4 1477.7 524.4 1477.7 569.5 C 1477.7 614.6 1502.4 614.6 1502.4 659.8 C 1502.4 704.9 1513.7 704.9 1513.7 750.1 C 1513.7 795.2 1508.9 795.2 1508.9 840.3 " fill="none" stroke="#8f4f2f" stroke-width="6.56" stroke-linecap="round" opacity="0.15"/><path d="M 181.1 -33.8 C 181.1 22.6 206.7 22.6 206.7 79.0 C 206.7 135.4 239.8 135.4 239.8 191.8 C 239.8 248.3 275.1 248.3 275.1 304.7 C 275.1 361.1 308.2 361.1 308.2 417.5 C 308.2 473.9 335.7 473.9 335.7 530.3 C 335.7 586.7 355.4 586.7 355.4 643.1 C 355.4 699.5 365.5 699.5 365.5 755.9 C 365.5 812.4 364.6 812.4 364.6 868.8 C 364.6 925.2 351.5 925.2 351.5 981.6 " fill="none" stroke="#f0cfb8" stroke-width="6.78" stroke-linecap="round" opacity="0.14"/><path d="M 1425.3 -18.2 C 1425.3 37.2 1452.7 37.2 1452.7 92.6 C 1452.7 148.0 1487.3 148.0 1487.3 203.4 C 1487.3 258.8 1523.9 258.8 1523.9 314.2 C 1523.9 369.6 1558.0 369.6 1558.0 425.0 C 1558.0 480.4 1585.9 480.4 1585.9 535.8 C 1585.9 591.1 1605.0 591.1 1605.0 646.5 C 1605.0 701.9 1613.6 701.9 1613.6 757.3 C 1613.6 812.7 1610.6 812.7 1610.6 868.1 C 1610.6 923.5 1595.2 923.5 1595.2 978.9 " fill="none" stroke="#f7e3d4" stroke-width="4.82" stroke-linecap="round" opacity="0.31"/><path d="M 109.0 18.9 C 109.0 69.8 125.6 69.8 125.6 120.7 C 125.6 171.6 154.4 171.6 154.4 222.5 C 154.4 273.4 190.4 273.4 190.4 324.3 C 190.4 375.2 229.2 375.2 229.2 426.1 C 229.2 476.9 266.7 476.9 266.7 527.8 C 266.7 578.7 299.6 578.7 299.6 629.6 C 299.6 680.5 324.5 680.5 324.5 731.4 C 324.5 782.3 338.3 782.3 338.3 833.2 C 338.3 884.1 337.8 884.1 337.8 935.0 " fill="none" stroke="#e8b28f" stroke-width="7.78" stroke-linecap="round" opacity="0.09"/><path d="M -23.3 -52.1 C -23.3 4.6 -4.4 4.6 -4.4 61.3 C -4.4 117.9 26.6 117.9 26.6 174.6 C 26.6 231.2 64.7 231.2 64.7 287.9 C 64.7 344.5 105.2 344.5 105.2 401.2 C 105.2 457.8 143.9 457.8 143.9 514.5 C 143.9 571.1 176.8 571.1 176.8 627.8 C 176.8 684.4 200.6 684.4 200.6 741.1 C 200.6 797.7 212.4 797.7 212.4 854.4 C 212.4 911.0 209.5 911.0 209.5 967.7 " fill="none" stroke="#c9794b" stroke-width="6.06" stroke-linecap="round" opacity="0.09"/><path d="M 240.9 -11.5 C 240.9 32.2 266.1 32.2 266.1 75.8 C 266.1 119.5 298.7 119.5 298.7 163.2 C 298.7 206.8 333.5 206.8 333.5 250.5 C 333.5 294.2 366.3 294.2 366.3 337.9 C 366.3 381.5 393.7 381.5 393.7 425.2 C 393.7 468.9 413.1 468.9 413.1 512.6 C 413.1 556.2 422.8 556.2 422.8 599.9 C 422.8 643.6 421.5 643.6 421.5 687.3 C 421.5 730.9 408.2 730.9 408.2 774.6 " fill="none" stroke="#8f4f2f" stroke-width="6.20" stroke-linecap="round" opacity="0.07"/><path d="M 888.5 74.9 C 888.5 124.0 922.5 124.0 922.5 173.2 C 922.5 222.3 963.1 222.3 963.1 271.4 C 963.1 320.5 1004.6 320.5 1004.6 369.6 C 1004.6 418.7 1041.9 418.7 1041.9 467.8 C 1041.9 517.0 1070.9 517.0 1070.9 566.1 C 1070.9 615.2 1088.9 615.2 1088.9 664.3 C 1088.9 713.4 1094.0 713.4 1094.0 762.5 C 1094.0 811.6 1085.6 811.6 1085.6 860.8 C 1085.6 909.9 1063.8 909.9 1063.8 959.0 " fill="none" stroke="#f0cfb8" stroke-width="7.59" stroke-linecap="round" opacity="0.08"/><path d="M 1473.0 41.1 C 1473.0 83.8 1496.1 83.8 1496.1 126.4 C 1496.1 169.1 1528.7 169.1 1528.7 211.8 C 1528.7 254.5 1565.4 254.5 1565.4 297.1 C 1565.4 339.8 1601.7 339.8 1601.7 382.5 C 1601.7 425.1 1633.8 425.1 1633.8 467.8 C 1633.8 510.5 1659.0 510.5 1659.0 553.1 C 1659.0 595.8 1675.0 595.8 1675.0 638.5 C 1675.0 681.1 1679.7 681.1 1679.7 723.8 C 1679.7 766.5 1671.0 766.5 1671.0 809.1 " fill="none" stroke="#8f4f2f" stroke-width="3.75" stroke-linecap="round" opacity="0.08"/><path d="M 664.1 17.4 C 664.1 61.6 701.3 61.6 701.3 105.7 C 701.3 149.9 752.2 149.9 752.2 194.1 C 752.2 238.3 809.1 238.3 809.1 282.4 C 809.1 326.6 865.0 326.6 865.0 370.8 C 865.0 415.0 913.8 415.0 913.8 459.1 C 913.8 503.3 950.8 503.3 950.8 547.5 C 950.8 591.7 972.1 591.7 972.1 635.8 C 972.1 680.0 975.0 680.0 975.0 724.2 C 975.0 768.3 957.8 768.3 957.8 812.5 " fill="none" stroke="#f0cfb8" stroke-width="5.62" stroke-linecap="round" opacity="0.13"/><path d="M 1448.0 45.8 C 1448.0 91.8 1466.0 91.8 1466.0 137.8 C 1466.0 183.8 1494.0 183.8 1494.0 229.8 C 1494.0 275.8 1527.2 275.8 1527.2 321.8 C 1527.2 367.8 1561.6 367.8 1561.6 413.8 C 1561.6 459.8 1593.6 459.8 1593.6 505.8 C 1593.6 551.8 1620.3 551.8 1620.3 597.8 C 1620.3 643.8 1639.0 643.8 1639.0 689.8 C 1639.0 735.8 1647.4 735.8 1647.4 781.8 C 1647.4 827.8 1643.2 827.8 1643.2 873.8 " fill="none" stroke="#e8b28f" stroke-width="4.85" stroke-linecap="round" opacity="0.13"/><path d="M 739.6 33.4 C 739.6 80.1 772.3 80.1 772.3 126.9 C 772.3 173.7 810.6 173.7 810.6 220.5 C 810.6 267.3 848.8 267.3 848.8 314.1 C 848.8 360.9 882.3 360.9 882.3 407.6 C 882.3 454.4 907.4 454.4 907.4 501.2 C 907.4 548.0 921.9 548.0 921.9 594.8 C 921.9 641.6 924.6 641.6 924.6 688.3 C 924.6 735.1 915.0 735.1 915.0 781.9 C 915.0 828.7 893.2 828.7 893.2 875.5 " fill="none" stroke="#f0cfb8" stroke-width="3.44" stroke-linecap="round" opacity="0.12"/><path d="M 468.2 66.7 C 468.2 109.2 489.9 109.2 489.9 151.8 C 489.9 194.3 526.0 194.3 526.0 236.9 C 526.0 279.4 570.4 279.4 570.4 321.9 C 570.4 364.5 617.9 364.5 617.9 407.0 C 617.9 449.6 663.3 449.6 663.3 492.1 C 663.3 534.6 702.3 534.6 702.3 577.2 C 702.3 619.7 730.8 619.7 730.8 662.3 C 730.8 704.8 745.4 704.8 745.4 747.3 C 745.4 789.9 742.7 789.9 742.7 832.4 " fill="none" stroke="#c9794b" stroke-width="3.12" stroke-linecap="round" opacity="0.13"/><path d="M 215.4 -32.2 C 215.4 20.4 247.8 20.4 247.8 73.1 C 247.8 125.7 290.7 125.7 290.7 178.3 C 290.7 231.0 338.0 231.0 338.0 283.6 C 338.0 336.2 383.9 336.2 383.9 388.9 C 383.9 441.5 423.3 441.5 423.3 494.1 C 423.3 546.8 452.1 546.8 452.1 599.4 C 452.1 652.0 467.1 652.0 467.1 704.7 C 467.1 757.3 466.7 757.3 466.7 809.9 C 466.7 862.6 449.8 862.6 449.8 915.2 " fill="none" stroke="#c9794b" stroke-width="6.07" stroke-linecap="round" opacity="0.14"/></g>
<g><path d="M 1516.8 96.3 C 1516.8 141.5 1541.6 141.5 1541.6 186.6 C 1541.6 231.8 1575.0 231.8 1575.0 277.0 C 1575.0 322.2 1612.0 322.2 1612.0 367.4 C 1612.0 412.6 1648.0 412.6 1648.0 457.8 C 1648.0 503.0 1679.1 503.0 1679.1 548.1 C 1679.1 593.3 1702.5 593.3 1702.5 638.5 C 1702.5 683.7 1715.9 683.7 1715.9 728.9 C 1715.9 774.1 1717.6 774.1 1717.6 819.3 C 1717.6 864.4 1706.1 864.4 1706.1 909.6 " fill="none" stroke="#e8b28f" stroke-width="1.75" stroke-linecap="round" opacity="0.43"/><path d="M 1056.7 73.9 C 1056.7 117.1 1071.1 117.1 1071.1 160.2 C 1071.1 203.4 1098.6 203.4 1098.6 246.5 C 1098.6 289.7 1134.6 289.7 1134.6 332.8 C 1134.6 376.0 1174.4 376.0 1174.4 419.1 C 1174.4 462.3 1214.1 462.3 1214.1 505.4 C 1214.1 548.5 1249.8 548.5 1249.8 591.7 C 1249.8 634.8 1277.8 634.8 1277.8 678.0 C 1277.8 721.1 1294.8 721.1 1294.8 764.3 C 1294.8 807.4 1297.1 807.4 1297.1 850.6 " fill="none" stroke="#f0cfb8" stroke-width="1.30" stroke-linecap="round" opacity="0.27"/><path d="M 1355.4 10.5 C 1355.4 57.3 1370.1 57.3 1370.1 104.2 C 1370.1 151.0 1394.0 151.0 1394.0 197.9 C 1394.0 244.7 1423.3 244.7 1423.3 291.5 C 1423.3 338.4 1454.4 338.4 1454.4 385.2 C 1454.4 432.1 1484.0 432.1 1484.0 478.9 C 1484.0 525.8 1509.1 525.8 1509.1 572.6 C 1509.1 619.4 1527.2 619.4 1527.2 666.3 C 1527.2 713.1 1536.0 713.1 1536.0 760.0 C 1536.0 806.8 1533.5 806.8 1533.5 853.6 " fill="none" stroke="#8f4f2f" stroke-width="1.51" stroke-linecap="round" opacity="0.43"/><path d="M 1380.9 -11.1 C 1380.9 41.2 1405.0 41.2 1405.0 93.6 C 1405.0 145.9 1434.7 145.9 1434.7 198.3 C 1434.7 250.6 1465.1 250.6 1465.1 303.0 C 1465.1 355.3 1492.6 355.3 1492.6 407.7 C 1492.6 460.0 1514.4 460.0 1514.4 512.4 C 1514.4 564.7 1528.6 564.7 1528.6 617.1 C 1528.6 669.4 1533.8 669.4 1533.8 721.7 C 1533.8 774.1 1529.6 774.1 1529.6 826.4 C 1529.6 878.8 1515.2 878.8 1515.2 931.1 " fill="none" stroke="#f0cfb8" stroke-width="1.69" stroke-linecap="round" opacity="0.33"/><path d="M 489.4 59.7 C 489.4 109.2 516.3 109.2 516.3 158.8 C 516.3 208.3 555.3 208.3 555.3 257.8 C 555.3 307.3 600.6 307.3 600.6 356.8 C 600.6 406.3 646.8 406.3 646.8 455.8 C 646.8 505.3 688.7 505.3 688.7 554.8 C 688.7 604.3 722.1 604.3 722.1 653.8 C 722.1 703.3 743.3 703.3 743.3 752.9 C 743.3 802.4 749.9 802.4 749.9 851.9 C 749.9 901.4 739.8 901.4 739.8 950.9 " fill="none" stroke="#f0cfb8" stroke-width="1.05" stroke-linecap="round" opacity="0.32"/><path d="M 763.0 -15.2 C 763.0 39.1 790.2 39.1 790.2 93.4 C 790.2 147.7 830.3 147.7 830.3 202.0 C 830.3 256.3 876.8 256.3 876.8 310.6 C 876.8 364.9 924.2 364.9 924.2 419.2 C 924.2 473.6 967.4 473.6 967.4 527.9 C 967.4 582.2 1002.1 582.2 1002.1 636.5 C 1002.1 690.8 1024.9 690.8 1024.9 745.1 C 1024.9 799.4 1032.9 799.4 1032.9 853.7 C 1032.9 908.0 1023.7 908.0 1023.7 962.3 " fill="none" stroke="#e8b28f" stroke-width="1.10" stroke-linecap="round" opacity="0.48"/><path d="M 362.7 36.4 C 362.7 83.5 378.6 83.5 378.6 130.5 C 378.6 177.6 401.1 177.6 401.1 224.7 C 401.1 271.8 426.2 271.8 426.2 318.9 C 426.2 366.0 450.9 366.0 450.9 413.0 C 450.9 460.1 472.7 460.1 472.7 507.2 C 472.7 554.3 489.8 554.3 489.8 601.4 C 489.8 648.5 500.6 648.5 500.6 695.5 C 500.6 742.6 503.7 742.6 503.7 789.7 C 503.7 836.8 497.6 836.8 497.6 883.9 " fill="none" stroke="#8f4f2f" stroke-width="2.14" stroke-linecap="round" opacity="0.26"/><path d="M -12.9 67.6 C -12.9 111.1 5.7 111.1 5.7 154.6 C 5.7 198.1 36.0 198.1 36.0 241.6 C 36.0 285.1 73.0 285.1 73.0 328.6 C 73.0 372.1 112.1 372.1 112.1 415.6 C 112.1 459.1 149.3 459.1 149.3 502.6 C 149.3 546.1 180.9 546.1 180.9 589.6 C 180.9 633.1 203.5 633.1 203.5 676.6 C 203.5 720.1 214.4 720.1 214.4 763.6 C 214.4 807.1 211.0 807.1 211.0 850.6 " fill="none" stroke="#8f4f2f" stroke-width="1.38" stroke-linecap="round" opacity="0.22"/><path d="M 605.5 16.3 C 605.5 68.8 621.6 68.8 621.6 121.3 C 621.6 173.8 651.1 173.8 651.1 226.3 C 651.1 278.8 689.3 278.8 689.3 331.3 C 689.3 383.8 731.4 383.8 731.4 436.3 C 731.4 488.8 773.0 488.8 773.0 541.3 C 773.0 593.8 809.9 593.8 809.9 646.3 C 809.9 698.8 838.1 698.8 838.1 751.3 C 838.1 803.8 854.3 803.8 854.3 856.3 C 854.3 908.8 855.2 908.8 855.2 961.3 " fill="none" stroke="#f0cfb8" stroke-width="1.89" stroke-linecap="round" opacity="0.50"/><path d="M -131.7 -0.5 C -131.7 44.6 -107.3 44.6 -107.3 89.7 C -107.3 134.8 -72.5 134.8 -72.5 179.9 C -72.5 225.0 -32.6 225.0 -32.6 270.1 C -32.6 315.2 7.6 315.2 7.6 360.3 C 7.6 405.4 43.6 405.4 43.6 450.5 C 43.6 495.6 72.0 495.6 72.0 540.7 C 72.0 585.8 89.7 585.8 89.7 630.9 C 89.7 676.0 94.7 676.0 94.7 721.1 C 94.7 766.2 85.1 766.2 85.1 811.3 " fill="none" stroke="#e8b28f" stroke-width="0.63" stroke-linecap="round" opacity="0.19"/><path d="M 804.8 18.5 C 804.8 70.9 823.6 70.9 823.6 123.2 C 823.6 175.5 857.5 175.5 857.5 227.8 C 857.5 280.1 900.9 280.1 900.9 332.5 C 900.9 384.8 948.6 384.8 948.6 437.1 C 948.6 489.4 995.3 489.4 995.3 541.7 C 995.3 594.1 1036.5 594.1 1036.5 646.4 C 1036.5 698.7 1067.6 698.7 1067.6 751.0 C 1067.6 803.3 1085.0 803.3 1085.0 855.7 C 1085.0 908.0 1085.1 908.0 1085.1 960.3 " fill="none" stroke="#f0cfb8" stroke-width="2.28" stroke-linecap="round" opacity="0.39"/><path d="M 1195.2 38.2 C 1195.2 87.0 1211.7 87.0 1211.7 135.7 C 1211.7 184.5 1240.9 184.5 1240.9 233.3 C 1240.9 282.1 1278.0 282.1 1278.0 330.8 C 1278.0 379.6 1318.3 379.6 1318.3 428.4 C 1318.3 477.2 1357.7 477.2 1357.7 525.9 C 1357.7 574.7 1392.4 574.7 1392.4 623.5 C 1392.4 672.3 1418.9 672.3 1418.9 721.0 C 1418.9 769.8 1433.9 769.8 1433.9 818.6 C 1433.9 867.4 1434.1 867.4 1434.1 916.1 " fill="none" stroke="#c9794b" stroke-width="1.94" stroke-linecap="round" opacity="0.43"/><path d="M 48.1 3.0 C 48.1 56.7 75.0 56.7 75.0 110.5 C 75.0 164.2 114.6 164.2 114.6 218.0 C 114.6 271.7 160.6 271.7 160.6 325.4 C 160.6 379.2 207.4 379.2 207.4 432.9 C 207.4 486.7 250.1 486.7 250.1 540.4 C 250.1 594.1 284.4 594.1 284.4 647.9 C 284.4 701.6 306.9 701.6 306.9 755.4 C 306.9 809.1 314.8 809.1 314.8 862.9 C 314.8 916.6 305.7 916.6 305.7 970.3 " fill="none" stroke="#e8b28f" stroke-width="2.27" stroke-linecap="round" opacity="0.40"/><path d="M 993.0 133.3 C 993.0 170.2 1006.7 170.2 1006.7 207.1 C 1006.7 244.0 1030.4 244.0 1030.4 280.9 C 1030.4 317.8 1060.2 317.8 1060.2 354.7 C 1060.2 391.6 1092.4 391.6 1092.4 428.5 C 1092.4 465.3 1123.6 465.3 1123.6 502.2 C 1123.6 539.1 1150.9 539.1 1150.9 576.0 C 1150.9 612.9 1171.3 612.9 1171.3 649.8 C 1171.3 686.7 1182.4 686.7 1182.4 723.6 C 1182.4 760.5 1181.8 760.5 1181.8 797.4 " fill="none" stroke="#e8b28f" stroke-width="1.44" stroke-linecap="round" opacity="0.18"/><path d="M 1297.6 -65.8 C 1297.6 -17.9 1316.9 -17.9 1316.9 30.1 C 1316.9 78.1 1347.4 78.1 1347.4 126.1 C 1347.4 174.1 1383.8 174.1 1383.8 222.0 C 1383.8 270.0 1421.6 270.0 1421.6 318.0 C 1421.6 366.0 1457.0 366.0 1457.0 413.9 C 1457.0 461.9 1486.8 461.9 1486.8 509.9 C 1486.8 557.9 1508.0 557.9 1508.0 605.8 C 1508.0 653.8 1518.1 653.8 1518.1 701.8 C 1518.1 749.8 1514.3 749.8 1514.3 797.8 " fill="none" stroke="#e8b28f" stroke-width="2.32" stroke-linecap="round" opacity="0.23"/><path d="M 1025.0 60.5 C 1025.0 101.7 1050.5 101.7 1050.5 142.9 C 1050.5 184.2 1085.6 184.2 1085.6 225.4 C 1085.6 266.6 1124.6 266.6 1124.6 307.8 C 1124.6 349.0 1162.7 349.0 1162.7 390.3 C 1162.7 431.5 1196.1 431.5 1196.1 472.7 C 1196.1 513.9 1221.5 513.9 1221.5 555.1 C 1221.5 596.3 1236.7 596.3 1236.7 637.6 C 1236.7 678.8 1239.7 678.8 1239.7 720.0 C 1239.7 761.2 1228.7 761.2 1228.7 802.4 " fill="none" stroke="#f0cfb8" stroke-width="2.11" stroke-linecap="round" opacity="0.27"/><path d="M 936.5 -22.0 C 936.5 33.7 950.8 33.7 950.8 89.4 C 950.8 145.1 971.3 145.1 971.3 200.8 C 971.3 256.4 994.4 256.4 994.4 312.1 C 994.4 367.8 1017.5 367.8 1017.5 423.5 C 1017.5 479.2 1038.1 479.2 1038.1 534.8 C 1038.1 590.5 1054.4 590.5 1054.4 646.2 C 1054.4 701.9 1064.9 701.9 1064.9 757.6 C 1064.9 813.2 1068.2 813.2 1068.2 868.9 C 1068.2 924.6 1063.0 924.6 1063.0 980.3 " fill="none" stroke="#f0cfb8" stroke-width="1.63" stroke-linecap="round" opacity="0.21"/><path d="M 1326.7 84.6 C 1326.7 132.4 1344.8 132.4 1344.8 180.3 C 1344.8 228.1 1367.2 228.1 1367.2 276.0 C 1367.2 323.8 1390.1 323.8 1390.1 371.7 C 1390.1 419.5 1410.8 419.5 1410.8 467.4 C 1410.8 515.2 1427.2 515.2 1427.2 563.1 C 1427.2 610.9 1437.9 610.9 1437.9 658.8 C 1437.9 706.7 1442.2 706.7 1442.2 754.5 C 1442.2 802.4 1439.5 802.4 1439.5 850.2 C 1439.5 898.1 1429.1 898.1 1429.1 945.9 " fill="none" stroke="#f0cfb8" stroke-width="1.57" stroke-linecap="round" opacity="0.35"/><path d="M 1236.2 129.7 C 1236.2 175.8 1258.7 175.8 1258.7 221.9 C 1258.7 268.1 1290.7 268.1 1290.7 314.2 C 1290.7 360.3 1326.9 360.3 1326.9 406.4 C 1326.9 452.5 1362.8 452.5 1362.8 498.6 C 1362.8 544.7 1394.7 544.7 1394.7 590.9 C 1394.7 637.0 1419.8 637.0 1419.8 683.1 C 1419.8 729.2 1435.6 729.2 1435.6 775.3 C 1435.6 821.4 1440.1 821.4 1440.1 867.5 C 1440.1 913.7 1431.4 913.7 1431.4 959.8 " fill="none" stroke="#f0cfb8" stroke-width="2.23" stroke-linecap="round" opacity="0.45"/><path d="M 454.8 77.9 C 454.8 123.2 479.2 123.2 479.2 168.5 C 479.2 213.9 517.3 213.9 517.3 259.2 C 517.3 304.5 563.0 304.5 563.0 349.8 C 563.0 395.1 610.8 395.1 610.8 440.4 C 610.8 485.7 655.6 485.7 655.6 531.0 C 655.6 576.3 692.8 576.3 692.8 621.7 C 692.8 667.0 718.6 667.0 718.6 712.3 C 718.6 757.6 729.9 757.6 729.9 802.9 C 729.9 848.2 723.8 848.2 723.8 893.5 " fill="none" stroke="#8f4f2f" stroke-width="0.71" stroke-linecap="round" opacity="0.29"/><path d="M 562.5 141.5 C 562.5 177.8 580.7 177.8 580.7 214.1 C 580.7 250.4 609.4 250.4 609.4 286.7 C 609.4 323.0 643.8 323.0 643.8 359.3 C 643.8 395.5 679.6 395.5 679.6 431.8 C 679.6 468.1 713.1 468.1 713.1 504.4 C 713.1 540.7 741.2 540.7 741.2 577.0 C 741.2 613.3 761.3 613.3 761.3 649.6 C 761.3 685.8 770.8 685.8 770.8 722.1 C 770.8 758.4 767.2 758.4 767.2 794.7 " fill="none" stroke="#8f4f2f" stroke-width="1.80" stroke-linecap="round" opacity="0.37"/><path d="M 541.8 -55.3 C 541.8 -2.5 564.3 -2.5 564.3 50.3 C 564.3 103.1 600.4 103.1 600.4 155.9 C 600.4 208.7 644.4 208.7 644.4 261.5 C 644.4 314.3 691.0 314.3 691.0 367.2 C 691.0 420.0 735.1 420.0 735.1 472.8 C 735.1 525.6 772.4 525.6 772.4 578.4 C 772.4 631.2 799.0 631.2 799.0 684.0 C 799.0 736.8 811.6 736.8 811.6 789.6 C 811.6 842.5 807.3 842.5 807.3 895.3 " fill="none" stroke="#e8b28f" stroke-width="1.44" stroke-linecap="round" opacity="0.22"/><path d="M 441.4 -42.9 C 441.4 14.4 459.5 14.4 459.5 71.6 C 459.5 128.8 481.5 128.8 481.5 186.0 C 481.5 243.3 503.8 243.3 503.8 300.5 C 503.8 357.7 523.6 357.7 523.6 415.0 C 523.6 472.2 539.0 472.2 539.0 529.4 C 539.0 586.7 548.8 586.7 548.8 643.9 C 548.8 701.1 552.2 701.1 552.2 758.3 C 552.2 815.6 548.7 815.6 548.7 872.8 C 548.7 930.0 537.9 930.0 537.9 987.3 " fill="none" stroke="#c9794b" stroke-width="1.38" stroke-linecap="round" opacity="0.28"/><path d="M 1215.3 67.6 C 1215.3 111.4 1229.6 111.4 1229.6 155.2 C 1229.6 199.0 1254.7 199.0 1254.7 242.9 C 1254.7 286.7 1286.3 286.7 1286.3 330.5 C 1286.3 374.3 1320.4 374.3 1320.4 418.2 C 1320.4 462.0 1353.6 462.0 1353.6 505.8 C 1353.6 549.6 1382.8 549.6 1382.8 593.4 C 1382.8 637.3 1405.1 637.3 1405.1 681.1 C 1405.1 724.9 1417.7 724.9 1417.7 768.7 C 1417.7 812.6 1417.7 812.6 1417.7 856.4 " fill="none" stroke="#8f4f2f" stroke-width="2.22" stroke-linecap="round" opacity="0.47"/><path d="M 444.7 39.8 C 444.7 81.0 467.4 81.0 467.4 122.1 C 467.4 163.2 503.5 163.2 503.5 204.3 C 503.5 245.4 547.4 245.4 547.4 286.5 C 547.4 327.6 593.8 327.6 593.8 368.7 C 593.8 409.8 637.6 409.8 637.6 450.9 C 637.6 492.1 674.4 492.1 674.4 533.2 C 674.4 574.3 700.4 574.3 700.4 615.4 C 700.4 656.5 712.4 656.5 712.4 697.6 C 712.4 738.7 707.5 738.7 707.5 779.8 " fill="none" stroke="#8f4f2f" stroke-width="1.59" stroke-linecap="round" opacity="0.33"/><path d="M 1166.1 -3.7 C 1166.1 40.8 1183.8 40.8 1183.8 85.2 C 1183.8 129.7 1210.7 129.7 1210.7 174.1 C 1210.7 218.5 1242.3 218.5 1242.3 263.0 C 1242.3 307.4 1275.0 307.4 1275.0 351.9 C 1275.0 396.3 1305.1 396.3 1305.1 440.8 C 1305.1 485.2 1329.8 485.2 1329.8 529.7 C 1329.8 574.1 1346.6 574.1 1346.6 618.5 C 1346.6 663.0 1353.5 663.0 1353.5 707.4 C 1353.5 751.9 1348.5 751.9 1348.5 796.3 " fill="none" stroke="#f0cfb8" stroke-width="1.46" stroke-linecap="round" opacity="0.36"/><path d="M 826.4 143.5 C 826.4 181.4 842.1 181.4 842.1 219.3 C 842.1 257.2 868.6 257.2 868.6 295.2 C 868.6 333.1 901.6 333.1 901.6 371.0 C 901.6 408.9 937.2 408.9 937.2 446.8 C 937.2 484.7 971.5 484.7 971.5 522.6 C 971.5 560.5 1001.0 560.5 1001.0 598.4 C 1001.0 636.4 1022.7 636.4 1022.7 674.3 C 1022.7 712.2 1033.8 712.2 1033.8 750.1 C 1033.8 788.0 1032.1 788.0 1032.1 825.9 " fill="none" stroke="#e8b28f" stroke-width="1.57" stroke-linecap="round" opacity="0.40"/><path d="M 681.9 -9.0 C 681.9 45.0 701.7 45.0 701.7 99.1 C 701.7 153.1 731.8 153.1 731.8 207.2 C 731.8 261.2 767.4 261.2 767.4 315.3 C 767.4 369.4 804.3 369.4 804.3 423.4 C 804.3 477.5 838.5 477.5 838.5 531.5 C 838.5 585.6 866.4 585.6 866.4 639.6 C 866.4 693.7 885.2 693.7 885.2 747.8 C 885.2 801.8 892.5 801.8 892.5 855.9 C 892.5 909.9 886.6 909.9 886.6 964.0 " fill="none" stroke="#f0cfb8" stroke-width="1.84" stroke-linecap="round" opacity="0.31"/><path d="M 942.0 58.9 C 942.0 102.7 957.7 102.7 957.7 146.5 C 957.7 190.3 982.1 190.3 982.1 234.1 C 982.1 277.9 1011.4 277.9 1011.4 321.6 C 1011.4 365.4 1041.8 365.4 1041.8 409.2 C 1041.8 453.0 1070.3 453.0 1070.3 496.8 C 1070.3 540.6 1094.1 540.6 1094.1 584.4 C 1094.1 628.2 1110.9 628.2 1110.9 672.0 C 1110.9 715.7 1118.6 715.7 1118.6 759.5 C 1118.6 803.3 1115.1 803.3 1115.1 847.1 " fill="none" stroke="#f0cfb8" stroke-width="1.29" stroke-linecap="round" opacity="0.34"/><path d="M 842.1 143.8 C 842.1 189.8 856.2 189.8 856.2 235.9 C 856.2 281.9 879.1 281.9 879.1 327.9 C 879.1 374.0 907.1 374.0 907.1 420.0 C 907.1 466.1 936.7 466.1 936.7 512.1 C 936.7 558.1 964.9 558.1 964.9 604.2 C 964.9 650.2 988.8 650.2 988.8 696.3 C 988.8 742.3 1006.0 742.3 1006.0 788.3 C 1006.0 834.4 1014.4 834.4 1014.4 880.4 C 1014.4 926.5 1012.1 926.5 1012.1 972.5 " fill="none" stroke="#8f4f2f" stroke-width="2.30" stroke-linecap="round" opacity="0.43"/><path d="M 793.9 22.2 C 793.9 72.1 818.6 72.1 818.6 122.0 C 818.6 171.9 853.9 171.9 853.9 221.8 C 853.9 271.7 894.0 271.7 894.0 321.6 C 894.0 371.5 934.0 371.5 934.0 421.4 C 934.0 471.3 969.8 471.3 969.8 521.2 C 969.8 571.1 998.2 571.1 998.2 621.0 C 998.2 670.9 1016.4 670.9 1016.4 720.8 C 1016.4 770.7 1022.1 770.7 1022.1 820.6 C 1022.1 870.5 1013.1 870.5 1013.1 920.4 " fill="none" stroke="#c9794b" stroke-width="1.06" stroke-linecap="round" opacity="0.47"/><path d="M -66.5 75.9 C -66.5 121.5 -37.3 121.5 -37.3 167.0 C -37.3 212.6 -1.0 212.6 -1.0 258.2 C -1.0 303.8 37.0 303.8 37.0 349.3 C 37.0 394.9 72.1 394.9 72.1 440.5 C 72.1 486.0 100.4 486.0 100.4 531.6 C 100.4 577.2 119.3 577.2 119.3 622.7 C 119.3 668.3 127.0 668.3 127.0 713.9 C 127.0 759.4 122.4 759.4 122.4 805.0 C 122.4 850.6 105.2 850.6 105.2 896.1 " fill="none" stroke="#c9794b" stroke-width="2.26" stroke-linecap="round" opacity="0.41"/><path d="M 18.0 -57.8 C 18.0 -9.4 35.5 -9.4 35.5 39.0 C 35.5 87.4 60.3 87.4 60.3 135.7 C 60.3 184.1 88.2 184.1 88.2 232.5 C 88.2 280.9 115.8 280.9 115.8 329.2 C 115.8 377.6 140.3 377.6 140.3 426.0 C 140.3 474.4 159.5 474.4 159.5 522.7 C 159.5 571.1 171.7 571.1 171.7 619.5 C 171.7 667.9 175.4 667.9 175.4 716.2 C 175.4 764.6 168.9 764.6 168.9 813.0 " fill="none" stroke="#f7e3d4" stroke-width="1.91" stroke-linecap="round" opacity="0.54"/><path d="M -111.5 -6.3 C -111.5 38.1 -95.7 38.1 -95.7 82.4 C -95.7 126.7 -67.0 126.7 -67.0 171.1 C -67.0 215.4 -30.1 215.4 -30.1 259.7 C -30.1 304.1 10.4 304.1 10.4 348.4 C 10.4 392.8 50.3 392.8 50.3 437.1 C 50.3 481.4 85.6 481.4 85.6 525.8 C 85.6 570.1 112.8 570.1 112.8 614.4 C 112.8 658.8 128.3 658.8 128.3 703.1 C 128.3 747.4 129.1 747.4 129.1 791.8 " fill="none" stroke="#f0cfb8" stroke-width="1.31" stroke-linecap="round" opacity="0.34"/><path d="M 306.1 99.0 C 306.1 148.2 328.8 148.2 328.8 197.4 C 328.8 246.6 364.6 246.6 364.6 295.9 C 364.6 345.1 407.7 345.1 407.7 394.3 C 407.7 443.6 452.9 443.6 452.9 492.8 C 452.9 542.0 495.3 542.0 495.3 591.2 C 495.3 640.5 530.7 640.5 530.7 689.7 C 530.7 738.9 555.5 738.9 555.5 788.1 C 555.5 837.4 566.4 837.4 566.4 886.6 C 566.4 935.8 561.0 935.8 561.0 985.1 " fill="none" stroke="#e8b28f" stroke-width="1.07" stroke-linecap="round" opacity="0.17"/><path d="M 59.9 57.6 C 59.9 99.0 85.5 99.0 85.5 140.5 C 85.5 181.9 122.7 181.9 122.7 223.4 C 122.7 264.9 165.4 264.9 165.4 306.3 C 165.4 347.8 208.5 347.8 208.5 389.2 C 208.5 430.7 247.4 430.7 247.4 472.1 C 247.4 513.6 278.3 513.6 278.3 555.0 C 278.3 596.5 298.2 596.5 298.2 637.9 C 298.2 679.4 304.5 679.4 304.5 720.8 C 304.5 762.3 295.2 762.3 295.2 803.7 " fill="none" stroke="#8f4f2f" stroke-width="0.71" stroke-linecap="round" opacity="0.52"/><path d="M 667.4 130.4 C 667.4 173.0 683.7 173.0 683.7 215.6 C 683.7 258.1 708.5 258.1 708.5 300.7 C 708.5 343.2 737.5 343.2 737.5 385.8 C 737.5 428.4 767.3 428.4 767.3 470.9 C 767.3 513.5 794.7 513.5 794.7 556.0 C 794.7 598.6 817.2 598.6 817.2 641.1 C 817.2 683.7 832.7 683.7 832.7 726.3 C 832.7 768.8 839.2 768.8 839.2 811.4 C 839.2 853.9 834.8 853.9 834.8 896.5 " fill="none" stroke="#8f4f2f" stroke-width="1.11" stroke-linecap="round" opacity="0.33"/><path d="M 34.1 67.8 C 34.1 118.9 54.3 118.9 54.3 170.0 C 54.3 221.1 84.4 221.1 84.4 272.2 C 84.4 323.3 119.7 323.3 119.7 374.4 C 119.7 425.5 155.6 425.5 155.6 476.6 C 155.6 527.8 188.6 527.8 188.6 578.9 C 188.6 630.0 215.5 630.0 215.5 681.1 C 215.5 732.2 233.5 732.2 233.5 783.3 C 233.5 834.4 240.5 834.4 240.5 885.5 C 240.5 936.6 234.4 936.6 234.4 987.8 " fill="none" stroke="#f7e3d4" stroke-width="1.40" stroke-linecap="round" opacity="0.57"/><path d="M 1524.9 96.1 C 1524.9 145.5 1552.3 145.5 1552.3 194.8 C 1552.3 244.1 1586.2 244.1 1586.2 293.5 C 1586.2 342.8 1621.6 342.8 1621.6 392.1 C 1621.6 441.4 1654.2 441.4 1654.2 490.8 C 1654.2 540.1 1680.4 540.1 1680.4 589.4 C 1680.4 638.8 1697.7 638.8 1697.7 688.1 C 1697.7 737.4 1704.5 737.4 1704.5 786.8 C 1704.5 836.1 1699.9 836.1 1699.9 885.4 C 1699.9 934.7 1683.5 934.7 1683.5 984.1 " fill="none" stroke="#e8b28f" stroke-width="0.64" stroke-linecap="round" opacity="0.47"/><path d="M 1266.4 -60.0 C 1266.4 -3.8 1282.5 -3.8 1282.5 52.4 C 1282.5 108.6 1305.6 108.6 1305.6 164.8 C 1305.6 221.0 1331.8 221.0 1331.8 277.2 C 1331.8 333.4 1357.8 333.4 1357.8 389.6 C 1357.8 445.8 1381.0 445.8 1381.0 502.0 C 1381.0 558.2 1399.4 558.2 1399.4 614.5 C 1399.4 670.7 1411.4 670.7 1411.4 726.9 C 1411.4 783.1 1415.4 783.1 1415.4 839.3 C 1415.4 895.5 1409.8 895.5 1409.8 951.7 " fill="none" stroke="#8f4f2f" stroke-width="0.69" stroke-linecap="round" opacity="0.25"/></g>
<rect width="1400" height="900" fill="url(#fade_ba3-after)"/>
<rect width="1400" height="900" fill="url(#vig_ba3-after)"/>
<rect width="1400" height="900" filter="url(#grain_ba3-after)" opacity="0.05"/>
</svg>