<svg viewBox="0 0 800 560" xmlns="http://www.w3.org/2000/svg" preserveAspectRatio="xMidYMid slice" role="img">
<defs>
<linearGradient id="bg_service-coupe-femme" x1="0" y1="0" x2="0.3" y2="1">
<stop offset="0" stop-color="#171014"/><stop offset="1" stop-color="#0c0a0d"/>
</linearGradient>
<radialGradient id="glow_service-coupe-femme" cx="0.31" cy="0.22" r="0.9">
<stop offset="0" stop-color="#c98fa0" stop-opacity="0.42"/>
<stop offset="0.5" stop-color="#c98fa0" stop-opacity="0.10"/>
<stop offset="1" stop-color="#c98fa0" stop-opacity="0"/>
</radialGradient>
<radialGradient id="vig_service-coupe-femme" cx="0.5" cy="0.45" r="0.75">
<stop offset="0.55" stop-color="#000000" stop-opacity="0"/>
<stop offset="1" stop-color="#000000" stop-opacity="0.55"/>
</radialGradient>
<linearGradient id="fade_service-coupe-femme" x1="0" y1="0" x2="0" y2="1">
<stop offset="0" stop-color="#0c0a0d" stop-opacity="0.85"/>
<stop offset="0.16" stop-color="#0c0a0d" stop-opacity="0"/>
<stop offset="0.84" stop-color="#0c0a0d" stop-opacity="0"/>
<stop offset="1" stop-color="#0c0a0d" stop-opacity="0.9"/>
</linearGradient>
<filter id="blur_service-coupe-femme"><feGaussianBlur stdDeviation="6"/></filter>
<filter id="grain_service-coupe-femme"><feTurbulence type="fractalNoise" baseFrequency="0.9" numOctaves="2" stitchTiles="stitch"/>
<feColorMatrix type="matrix" values="0 0 0 0 0  0 0 0 0 0  0 0 0 0 0  0 0 0 0.5 0"/></filter>
</defs>
<rect width="800" height="560" fill="url(#bg_service-coupe-femme)"/>
<rect width="800" height="560" fill="url(#glow_service-coupe-femme)"/>
<g filter="url(#blur_service-coupe-femme)"><path d="M 833.4 23.3 C 833.4 49.6 846.7 49.6 846.7 75.9 C 846.7 102.2 864.9 102.2 864.9 128.4 C 864.9 154.7 885.2 154.7 885.2 181.0 C 885.2 207.3 905.1 207.3 905.1 233.6 C 905.1 259.9 922.5 259.9 922.5 286.1 C 922.5 312.4 935.6 312.4 935.6 338.7 C 935.6 365.0 943.1 365.0 943.1 391.3 C 943.1 417.5 944.1 417.5 944.1 443.8 C 944.1 470.1 938.0 470.1 938.0 496.4 " fill="none" stroke="#e8c2cd" stroke-width="3.61" stroke-linecap="round" opacity="0.12"/><path d="M 233.3 -20.8 C 233.3 8.5 251.3 8.5 251.3 37.8 C 251.3 67.1 275.1 67.1 275.1 96.5 C 275.1 125.8 301.4 125.8 301.4 155.1 C 301.4 184.4 326.9 184.4 326.9 213.7 C 326.9 243.1 348.8 243.1 348.8 272.4 C 348.8 301.7 364.8 301.7 364.8 331.0 C 364.8 360.3 373.4 360.3 373.4 389.7 C 373.4 419.0 373.4 419.0 373.4 448.3 C 373.4 477.6 364.3 477.6 364.3 506.9 " fill="none" stroke="#e8c2cd" stroke-width="4.74" stroke-linecap="round" opacity="0.11"/><path d="M 321.2 5.6 C 321.2 38.5 331.5 38.5 331.5 71.3 C 331.5 104.1 346.6 104.1 346.6 137.0 C 346.6 169.8 364.0 169.8 364.0 202.6 C 364.0 235.5 381.4 235.5 381.4 268.3 C 381.4 301.2 397.2 301.2 397.2 334.0 C 397.2 366.8 409.8 366.8 409.8 399.7 C 409.8 432.5 418.0 432.5 418.0 465.4 C 418.0 498.2 420.9 498.2 420.9 531.0 C 420.9 563.9 417.3 563.9 417.3 596.7 " fill="none" stroke="#e8c2cd" stroke-width="6.19" stroke-linecap="round" opacity="0.07"/><path d="M 676.5 78.0 C 676.5 102.2 686.1 102.2 686.1 126.4 C 686.1 150.6 701.0 150.6 701.0 174.8 C 701.0 199.0 718.7 199.0 718.7 223.2 C 718.7 247.4 737.1 247.4 737.1 271.6 C 737.1 295.7 754.2 295.7 754.2 319.9 C 754.2 344.1 768.4 344.1 768.4 368.3 C 768.4 392.5 778.5 392.5 778.5 416.7 C 778.5 440.9 783.0 440.9 783.0 465.1 C 783.0 489.3 780.8 489.3 780.8 513.5 " fill="none" stroke="#e8c2cd" stroke-width="5.24" stroke-linecap="round" opacity="0.11"/><path d="M 516.2 38.4 C 516.2 69.9 527.3 69.9 527.3 101.5 C 527.3 133.0 546.5 133.0 546.5 164.6 C 546.5 196.2 570.5 196.2 570.5 227.7 C 570.5 259.3 596.5 259.3 596.5 290.8 C 596.5 322.4 621.6 322.4 621.6 353.9 C 621.6 385.5 643.4 385.5 643.4 417.0 C 643.4 448.6 659.7 448.6 659.7 480.2 C 659.7 511.7 668.3 511.7 668.3 543.3 C 668.3 574.8 667.5 574.8 667.5 606.4 " fill="none" stroke="#c98fa0" stroke-width="6.57" stroke-linecap="round" opacity="0.12"/><path d="M 443.8 -36.5 C 443.8 -6.9 465.4 -6.9 465.4 22.6 C 465.4 52.1 493.9 52.1 493.9 81.7 C 493.9 111.2 525.0 111.2 525.0 140.8 C 525.0 170.3 554.8 170.3 554.8 199.8 C 554.8 229.4 580.2 229.4 580.2 258.9 C 580.2 288.4 598.7 288.4 598.7 318.0 C 598.7 347.5 608.4 347.5 608.4 377.1 C 608.4 406.6 608.1 406.6 608.1 436.1 C 608.1 465.7 597.0 465.7 597.0 495.2 " fill="none" stroke="#8f5f6c" stroke-width="4.50" stroke-linecap="round" opacity="0.09"/><path d="M 666.2 -25.0 C 666.2 8.2 680.3 8.2 680.3 41.4 C 680.3 74.6 699.5 74.6 699.5 107.8 C 699.5 140.9 720.7 140.9 720.7 174.1 C 720.7 207.3 741.3 207.3 741.3 240.5 C 741.3 273.7 759.2 273.7 759.2 306.9 C 759.2 340.1 772.6 340.1 772.6 373.3 C 772.6 406.5 780.3 406.5 780.3 439.7 C 780.3 472.9 781.3 472.9 781.3 506.1 C 781.3 539.3 774.8 539.3 774.8 572.5 " fill="none" stroke="#f0d6de" stroke-width="7.31" stroke-linecap="round" opacity="0.07"/><path d="M 639.0 25.7 C 639.0 52.6 653.5 52.6 653.5 79.6 C 653.5 106.5 671.7 106.5 671.7 133.5 C 671.7 160.4 690.7 160.4 690.7 187.4 C 690.7 214.3 708.1 214.3 708.1 241.2 C 708.1 268.2 722.2 268.2 722.2 295.1 C 722.2 322.1 731.9 322.1 731.9 349.0 C 731.9 376.0 736.2 376.0 736.2 402.9 C 736.2 429.9 734.8 429.9 734.8 456.8 C 734.8 483.7 726.8 483.7 726.8 510.7 " fill="none" stroke="#8f5f6c" stroke-width="7.02" stroke-linecap="round" opacity="0.12"/><path d="M -62.8 52.0 C -62.8 77.4 -52.3 77.4 -52.3 102.8 C -52.3 128.3 -37.6 128.3 -37.6 153.7 C -37.6 179.1 -20.9 179.1 -20.9 204.6 C -20.9 230.0 -4.3 230.0 -4.3 255.4 C -4.3 280.8 10.5 280.8 10.5 306.3 C 10.5 331.7 21.9 331.7 21.9 357.1 C 21.9 382.6 29.0 382.6 29.0 408.0 C 29.0 433.4 30.8 433.4 30.8 458.9 C 30.8 484.3 26.5 484.3 26.5 509.7 " fill="none" stroke="#e8c2cd" stroke-width="4.95" stroke-linecap="round" opacity="0.14"/><path d="M 521.9 49.4 C 521.9 74.6 536.5 74.6 536.5 99.8 C 536.5 125.0 556.9 125.0 556.9 150.3 C 556.9 175.5 579.9 175.5 579.9 200.7 C 579.9 225.9 602.8 225.9 602.8 251.1 C 602.8 276.3 623.0 276.3 623.0 301.5 C 623.0 326.8 638.7 326.8 638.7 352.0 C 638.7 377.2 648.2 377.2 648.2 402.4 C 648.2 427.6 650.5 427.6 650.5 452.8 C 650.5 478.0 644.5 478.0 644.5 503.3 " fill="none" stroke="#f6e2e9" stroke-width="6.99" stroke-linecap="round" opacity="0.32"/><path d="M 104.5 41.4 C 104.5 66.8 114.8 66.8 114.8 92.2 C 114.8 117.5 131.3 117.5 131.3 142.9 C 131.3 168.3 151.4 168.3 151.4 193.7 C 151.4 219.0 172.7 219.0 172.7 244.4 C 172.7 269.8 192.8 269.8 192.8 295.1 C 192.8 320.5 209.7 320.5 209.7 345.9 C 209.7 371.3 221.8 371.3 221.8 396.6 C 221.8 422.0 227.3 422.0 227.3 447.4 C 227.3 472.8 225.2 472.8 225.2 498.1 " fill="none" stroke="#8f5f6c" stroke-width="3.33" stroke-linecap="round" opacity="0.14"/><path d="M 368.3 33.1 C 368.3 59.9 382.8 59.9 382.8 86.7 C 382.8 113.5 403.6 113.5 403.6 140.3 C 403.6 167.1 427.6 167.1 427.6 193.9 C 427.6 220.7 451.7 220.7 451.7 247.4 C 451.7 274.2 473.4 274.2 473.4 301.0 C 473.4 327.8 490.4 327.8 490.4 354.6 C 490.4 381.4 501.1 381.4 501.1 408.2 C 501.1 435.0 504.0 435.0 504.0 461.8 C 504.0 488.6 498.2 488.6 498.2 515.4 " fill="none" stroke="#c98fa0" stroke-width="3.73" stroke-linecap="round" opacity="0.07"/><path d="M 873.1 -19.2 C 873.1 16.1 883.8 16.1 883.8 51.3 C 883.8 86.6 899.3 86.6 899.3 121.9 C 899.3 157.2 917.0 157.2 917.0 192.4 C 917.0 227.7 934.8 227.7 934.8 263.0 C 934.8 298.3 950.7 298.3 950.7 333.5 C 950.7 368.8 963.4 368.8 963.4 404.1 C 963.4 439.4 971.5 439.4 971.5 474.6 C 971.5 509.9 974.1 509.9 974.1 545.2 C 974.1 580.5 970.2 580.5 970.2 615.7 " fill="none" stroke="#c98fa0" stroke-width="4.95" stroke-linecap="round" opacity="0.08"/><path d="M -47.5 9.3 C -47.5 40.4 -29.6 40.4 -29.6 71.6 C -29.6 102.7 -7.7 102.7 -7.7 133.8 C -7.7 164.9 15.1 164.9 15.1 196.0 C 15.1 227.1 36.0 227.1 36.0 258.3 C 36.0 289.4 52.8 289.4 52.8 320.5 C 52.8 351.6 63.7 351.6 63.7 382.7 C 63.7 413.9 67.7 413.9 67.7 445.0 C 67.7 476.1 64.3 476.1 64.3 507.2 C 64.3 538.3 53.3 538.3 53.3 569.5 " fill="none" stroke="#f0d6de" stroke-width="4.10" stroke-linecap="round" opacity="0.11"/><path d="M 750.9 14.9 C 750.9 46.3 763.8 46.3 763.8 77.6 C 763.8 109.0 783.0 109.0 783.0 140.4 C 783.0 171.7 805.4 171.7 805.4 203.1 C 805.4 234.5 828.2 234.5 828.2 265.8 C 828.2 297.2 849.1 297.2 849.1 328.6 C 849.1 359.9 866.1 359.9 866.1 391.3 C 866.1 422.7 877.5 422.7 877.5 454.0 C 877.5 485.4 881.9 485.4 881.9 516.7 C 881.9 548.1 877.9 548.1 877.9 579.5 " fill="none" stroke="#f6e2e9" stroke-width="3.92" stroke-linecap="round" opacity="0.33"/><path d="M 500.7 74.9 C 500.7 97.6 519.0 97.6 519.0 120.2 C 519.0 142.8 543.8 142.8 543.8 165.4 C 543.8 188.0 571.5 188.0 571.5 210.6 C 571.5 233.3 598.7 233.3 598.7 255.9 C 598.7 278.5 622.3 278.5 622.3 301.1 C 622.3 323.7 640.0 323.7 640.0 346.3 C 640.0 369.0 649.9 369.0 649.9 391.6 C 649.9 414.2 650.8 414.2 650.8 436.8 C 650.8 459.4 642.0 459.4 642.0 482.0 " fill="none" stroke="#e8c2cd" stroke-width="6.68" stroke-linecap="round" opacity="0.12"/><path d="M 300.9 36.0 C 300.9 65.0 310.3 65.0 310.3 94.1 C 310.3 123.2 325.6 123.2 325.6 152.2 C 325.6 181.3 344.2 181.3 344.2 210.4 C 344.2 239.4 363.7 239.4 363.7 268.5 C 363.7 297.5 382.2 297.5 382.2 326.6 C 382.2 355.7 397.9 355.7 397.9 384.7 C 397.9 413.8 409.3 413.8 409.3 442.8 C 409.3 471.9 415.0 471.9 415.0 501.0 C 415.0 530.0 413.6 530.0 413.6 559.1 " fill="none" stroke="#e8c2cd" stroke-width="7.62" stroke-linecap="round" opacity="0.06"/><path d="M 352.8 -27.9 C 352.8 1.2 367.4 1.2 367.4 30.4 C 367.4 59.5 388.1 59.5 388.1 88.6 C 388.1 117.8 411.6 117.8 411.6 146.9 C 411.6 176.1 435.0 176.1 435.0 205.2 C 435.0 234.3 455.9 234.3 455.9 263.5 C 455.9 292.6 472.3 292.6 472.3 321.7 C 472.3 350.9 482.7 350.9 482.7 380.0 C 482.7 409.1 485.6 409.1 485.6 438.3 C 485.6 467.4 480.0 467.4 480.0 496.6 " fill="none" stroke="#8f5f6c" stroke-width="6.08" stroke-linecap="round" opacity="0.05"/><path d="M 592.0 14.5 C 592.0 40.6 603.6 40.6 603.6 66.7 C 603.6 92.8 624.2 92.8 624.2 118.9 C 624.2 145.0 650.5 145.0 650.5 171.1 C 650.5 197.2 679.3 197.2 679.3 223.3 C 679.3 249.4 707.5 249.4 707.5 275.5 C 707.5 301.6 732.2 301.6 732.2 327.7 C 732.2 353.8 750.9 353.8 750.9 379.9 C 750.9 406.0 761.2 406.0 761.2 432.1 C 761.2 458.2 761.2 458.2 761.2 484.3 " fill="none" stroke="#f0d6de" stroke-width="3.77" stroke-linecap="round" opacity="0.06"/><path d="M 468.4 29.7 C 468.4 55.9 477.3 55.9 477.3 82.1 C 477.3 108.3 492.7 108.3 492.7 134.5 C 492.7 160.7 511.7 160.7 511.7 186.9 C 511.7 213.1 532.2 213.1 532.2 239.3 C 532.2 265.5 552.0 265.5 552.0 291.7 C 552.0 317.9 569.2 317.9 569.2 344.1 C 569.2 370.3 582.1 370.3 582.1 396.5 C 582.1 422.7 589.3 422.7 589.3 448.9 C 589.3 475.1 588.9 475.1 588.9 501.3 " fill="none" stroke="#f0d6de" stroke-width="7.69" stroke-linecap="round" opacity="0.09"/></g>
<g><path d="M 548.9 74.4 C 548.9 100.5 559.2 100.5 559.2 126.7 C 559.2 152.8 575.0 152.8 575.0 179.0 C 575.0 205.1 593.6 205.1 593.6 231.3 C 593.6 257.4 612.8 257.4 612.8 283.6 C 612.8 309.7 630.7 309.7 630.7 335.9 C 630.7 362.0 645.4 362.0 645.4 388.2 C 645.4 414.3 655.5 414.3 655.5 440.4 C 655.5 466.6 659.9 466.6 659.9 492.7 C 659.9 518.9 657.1 518.9 657.1 545.0 " fill="none" stroke="#c98fa0" stroke-width="2.10" stroke-linecap="round" opacity="0.24"/><path d="M 133.6 -32.8 C 133.6 -0.8 145.3 -0.8 145.3 31.3 C 145.3 63.4 165.9 63.4 165.9 95.5 C 165.9 127.6 192.3 127.6 192.3 159.7 C 192.3 191.7 221.2 191.7 221.2 223.8 C 221.2 255.9 249.4 255.9 249.4 288.0 C 249.4 320.1 274.2 320.1 274.2 352.2 C 274.2 384.3 292.9 384.3 292.9 416.3 C 292.9 448.4 303.2 448.4 303.2 480.5 C 303.2 512.6 303.1 512.6 303.1 544.7 " fill="none" stroke="#8f5f6c" stroke-width="2.19" stroke-linecap="round" opacity="0.43"/><path d="M 139.2 34.2 C 139.2 59.3 150.9 59.3 150.9 84.4 C 150.9 109.5 164.1 109.5 164.1 134.5 C 164.1 159.6 176.7 159.6 176.7 184.7 C 176.7 209.8 187.3 209.8 187.3 234.8 C 187.3 259.9 194.8 259.9 194.8 285.0 C 194.8 310.0 198.6 310.0 198.6 335.1 C 198.6 360.2 198.5 360.2 198.5 385.3 C 198.5 410.3 194.4 410.3 194.4 435.4 C 194.4 460.5 186.4 460.5 186.4 485.5 " fill="none" stroke="#e8c2cd" stroke-width="1.55" stroke-linecap="round" opacity="0.51"/><path d="M -27.7 -43.3 C -27.7 -12.5 -20.0 -12.5 -20.0 18.3 C -20.0 49.1 -6.7 49.1 -6.7 80.0 C -6.7 110.8 9.8 110.8 9.8 141.6 C 9.8 172.5 27.5 172.5 27.5 203.3 C 27.5 234.1 44.7 234.1 44.7 264.9 C 44.7 295.8 59.6 295.8 59.6 326.6 C 59.6 357.4 70.9 357.4 70.9 388.2 C 70.9 419.1 77.1 419.1 77.1 449.9 C 77.1 480.7 76.7 480.7 76.7 511.5 " fill="none" stroke="#c98fa0" stroke-width="2.18" stroke-linecap="round" opacity="0.20"/><path d="M 221.5 -1.1 C 221.5 26.9 234.0 26.9 234.0 54.9 C 234.0 82.9 253.4 82.9 253.4 110.9 C 253.4 138.9 276.6 138.9 276.6 166.8 C 276.6 194.8 300.7 194.8 300.7 222.8 C 300.7 250.8 323.2 250.8 323.2 278.8 C 323.2 306.8 341.9 306.8 341.9 334.7 C 341.9 362.7 355.0 362.7 355.0 390.7 C 355.0 418.7 360.8 418.7 360.8 446.7 C 360.8 474.7 357.8 474.7 357.8 502.6 " fill="none" stroke="#f6e2e9" stroke-width="1.67" stroke-linecap="round" opacity="0.57"/><path d="M 109.2 -2.5 C 109.2 25.5 117.7 25.5 117.7 53.5 C 117.7 81.6 132.2 81.6 132.2 109.6 C 132.2 137.6 150.1 137.6 150.1 165.7 C 150.1 193.7 169.4 193.7 169.4 221.7 C 169.4 249.8 187.9 249.8 187.9 277.8 C 187.9 305.8 203.9 305.8 203.9 333.9 C 203.9 361.9 215.8 361.9 215.8 390.0 C 215.8 418.0 222.1 418.0 222.1 446.0 C 222.1 474.1 221.3 474.1 221.3 502.1 " fill="none" stroke="#e8c2cd" stroke-width="0.80" stroke-linecap="round" opacity="0.50"/><path d="M 813.1 -39.1 C 813.1 -6.2 824.1 -6.2 824.1 26.8 C 824.1 59.8 837.6 59.8 837.6 92.8 C 837.6 125.8 851.5 125.8 851.5 158.7 C 851.5 191.7 864.1 191.7 864.1 224.7 C 864.1 257.7 874.0 257.7 874.0 290.7 C 874.0 323.6 880.5 323.6 880.5 356.6 C 880.5 389.6 883.0 389.6 883.0 422.6 C 883.0 455.6 881.3 455.6 881.3 488.5 C 881.3 521.5 874.9 521.5 874.9 554.5 " fill="none" stroke="#8f5f6c" stroke-width="2.36" stroke-linecap="round" opacity="0.16"/><path d="M 863.8 -10.7 C 863.8 23.7 875.7 23.7 875.7 58.2 C 875.7 92.7 893.1 92.7 893.1 127.1 C 893.1 161.6 913.4 161.6 913.4 196.1 C 913.4 230.5 934.1 230.5 934.1 265.0 C 934.1 299.5 952.9 299.5 952.9 333.9 C 952.9 368.4 967.9 368.4 967.9 402.9 C 967.9 437.3 977.7 437.3 977.7 471.8 C 977.7 506.3 980.9 506.3 980.9 540.7 C 980.9 575.2 976.6 575.2 976.6 609.7 " fill="none" stroke="#c98fa0" stroke-width="1.32" stroke-linecap="round" opacity="0.49"/><path d="M -62.6 44.2 C -62.6 69.2 -46.4 69.2 -46.4 94.2 C -46.4 119.2 -24.1 119.2 -24.1 144.2 C -24.1 169.1 0.7 169.1 0.7 194.1 C 0.7 219.1 25.3 219.1 25.3 244.1 C 25.3 269.1 46.8 269.1 46.8 294.1 C 46.8 319.1 63.0 319.1 63.0 344.1 C 63.0 369.1 72.3 369.1 72.3 394.1 C 72.3 419.1 73.6 419.1 73.6 444.1 C 73.6 469.1 66.0 469.1 66.0 494.1 " fill="none" stroke="#c98fa0" stroke-width="1.23" stroke-linecap="round" opacity="0.22"/><path d="M 139.1 17.9 C 139.1 46.2 147.3 46.2 147.3 74.4 C 147.3 102.7 161.5 102.7 161.5 131.0 C 161.5 159.3 179.2 159.3 179.2 187.6 C 179.2 215.8 198.1 215.8 198.1 244.1 C 198.1 272.4 216.4 272.4 216.4 300.7 C 216.4 329.0 232.3 329.0 232.3 357.2 C 232.3 385.5 244.3 385.5 244.3 413.8 C 244.3 442.1 250.9 442.1 250.9 470.4 C 250.9 498.7 250.5 498.7 250.5 526.9 " fill="none" stroke="#f6e2e9" stroke-width="1.08" stroke-linecap="round" opacity="0.55"/><path d="M 8.1 16.7 C 8.1 47.2 19.0 47.2 19.0 77.6 C 19.0 108.1 32.3 108.1 32.3 138.5 C 32.3 169.0 46.1 169.0 46.1 199.4 C 46.1 229.8 58.5 229.8 58.5 260.3 C 58.5 290.7 68.3 290.7 68.3 321.2 C 68.3 351.6 74.8 351.6 74.8 382.1 C 74.8 412.5 77.2 412.5 77.2 442.9 C 77.2 473.4 75.4 473.4 75.4 503.8 C 75.4 534.3 68.9 534.3 68.9 564.7 " fill="none" stroke="#e8c2cd" stroke-width="2.11" stroke-linecap="round" opacity="0.35"/><path d="M 813.8 38.2 C 813.8 64.7 824.2 64.7 824.2 91.2 C 824.2 117.6 840.8 117.6 840.8 144.1 C 840.8 170.6 860.9 170.6 860.9 197.1 C 860.9 223.6 882.0 223.6 882.0 250.0 C 882.0 276.5 901.8 276.5 901.8 303.0 C 901.8 329.5 918.6 329.5 918.6 355.9 C 918.6 382.4 930.7 382.4 930.7 408.9 C 930.7 435.4 936.5 435.4 936.5 461.8 C 936.5 488.3 934.6 488.3 934.6 514.8 " fill="none" stroke="#f0d6de" stroke-width="1.50" stroke-linecap="round" opacity="0.20"/><path d="M 152.1 20.1 C 152.1 52.7 167.2 52.7 167.2 85.4 C 167.2 118.1 186.6 118.1 186.6 150.8 C 186.6 183.5 207.5 183.5 207.5 216.1 C 207.5 248.8 227.4 248.8 227.4 281.5 C 227.4 314.2 244.1 314.2 244.1 346.9 C 244.1 379.6 255.9 379.6 255.9 412.2 C 255.9 444.9 261.6 444.9 261.6 477.6 C 261.6 510.3 260.6 510.3 260.6 543.0 C 260.6 575.6 252.3 575.6 252.3 608.3 " fill="none" stroke="#f6e2e9" stroke-width="2.29" stroke-linecap="round" opacity="0.49"/><path d="M 192.5 -35.0 C 192.5 -4.2 202.4 -4.2 202.4 26.7 C 202.4 57.5 217.0 57.5 217.0 88.4 C 217.0 119.2 233.9 119.2 233.9 150.1 C 233.9 180.9 251.1 180.9 251.1 211.8 C 251.1 242.6 266.8 242.6 266.8 273.5 C 266.8 304.3 279.6 304.3 279.6 335.2 C 279.6 366.0 288.0 366.0 288.0 396.9 C 288.0 427.7 291.2 427.7 291.2 458.6 C 291.2 489.4 288.1 489.4 288.1 520.3 " fill="none" stroke="#e8c2cd" stroke-width="1.70" stroke-linecap="round" opacity="0.22"/><path d="M 335.8 27.2 C 335.8 58.0 346.4 58.0 346.4 88.9 C 346.4 119.7 358.1 119.7 358.1 150.6 C 358.1 181.4 369.0 181.4 369.0 212.3 C 369.0 243.1 377.7 243.1 377.7 274.0 C 377.7 304.8 383.5 304.8 383.5 335.7 C 383.5 366.5 385.9 366.5 385.9 397.4 C 385.9 428.2 384.9 428.2 384.9 459.1 C 384.9 489.9 380.7 489.9 380.7 520.8 C 380.7 551.6 373.1 551.6 373.1 582.5 " fill="none" stroke="#8f5f6c" stroke-width="1.85" stroke-linecap="round" opacity="0.20"/><path d="M 857.6 29.5 C 857.6 61.1 866.9 61.1 866.9 92.8 C 866.9 124.4 881.6 124.4 881.6 156.0 C 881.6 187.7 899.1 187.7 899.1 219.3 C 899.1 250.9 917.4 250.9 917.4 282.6 C 917.4 314.2 934.6 314.2 934.6 345.8 C 934.6 377.5 949.0 377.5 949.0 409.1 C 949.0 440.7 959.1 440.7 959.1 472.3 C 959.1 504.0 963.8 504.0 963.8 535.6 C 963.8 567.2 961.8 567.2 961.8 598.9 " fill="none" stroke="#e8c2cd" stroke-width="0.68" stroke-linecap="round" opacity="0.41"/><path d="M 22.6 -16.7 C 22.6 11.6 33.8 11.6 33.8 39.9 C 33.8 68.2 50.3 68.2 50.3 96.5 C 50.3 124.9 69.3 124.9 69.3 153.2 C 69.3 181.5 88.4 181.5 88.4 209.8 C 88.4 238.2 105.9 238.2 105.9 266.5 C 105.9 294.8 120.0 294.8 120.0 323.1 C 120.0 351.5 129.4 351.5 129.4 379.8 C 129.4 408.1 132.9 408.1 132.9 436.4 C 132.9 464.7 129.4 464.7 129.4 493.1 " fill="none" stroke="#f0d6de" stroke-width="1.70" stroke-linecap="round" opacity="0.22"/><path d="M 304.5 68.0 C 304.5 96.9 315.3 96.9 315.3 125.8 C 315.3 154.7 334.1 154.7 334.1 183.5 C 334.1 212.4 357.9 212.4 357.9 241.3 C 357.9 270.2 383.7 270.2 383.7 299.1 C 383.7 327.9 408.8 327.9 408.8 356.8 C 408.8 385.7 430.7 385.7 430.7 414.6 C 430.7 443.4 447.2 443.4 447.2 472.3 C 447.2 501.2 456.2 501.2 456.2 530.1 C 456.2 559.0 455.9 559.0 455.9 587.8 " fill="none" stroke="#f0d6de" stroke-width="1.95" stroke-linecap="round" opacity="0.41"/><path d="M 208.2 64.3 C 208.2 93.4 222.0 93.4 222.0 122.5 C 222.0 151.6 238.3 151.6 238.3 180.8 C 238.3 209.9 254.8 209.9 254.8 239.0 C 254.8 268.1 269.5 268.1 269.5 297.2 C 269.5 326.4 280.7 326.4 280.7 355.5 C 280.7 384.6 287.5 384.6 287.5 413.7 C 287.5 442.8 289.3 442.8 289.3 472.0 C 289.3 501.1 285.8 501.1 285.8 530.2 C 285.8 559.3 277.0 559.3 277.0 588.4 " fill="none" stroke="#e8c2cd" stroke-width="1.48" stroke-linecap="round" opacity="0.42"/><path d="M 375.2 -41.4 C 375.2 -9.4 389.0 -9.4 389.0 22.7 C 389.0 54.7 407.5 54.7 407.5 86.8 C 407.5 118.8 428.0 118.8 428.0 150.9 C 428.0 182.9 447.9 182.9 447.9 215.0 C 447.9 247.0 465.0 247.0 465.0 279.1 C 465.0 311.1 477.8 311.1 477.8 343.2 C 477.8 375.2 484.9 375.2 484.9 407.3 C 484.9 439.3 485.4 439.3 485.4 471.4 C 485.4 503.4 478.7 503.4 478.7 535.5 " fill="none" stroke="#e8c2cd" stroke-width="0.80" stroke-linecap="round" opacity="0.39"/><path d="M 51.8 18.8 C 51.8 45.8 68.6 45.8 68.6 72.8 C 68.6 99.8 93.4 99.8 93.4 126.8 C 93.4 153.8 122.4 153.8 122.4 180.8 C 122.4 207.8 151.9 207.8 151.9 234.8 C 151.9 261.8 179.0 261.8 179.0 288.8 C 179.0 315.8 200.7 315.8 200.7 342.8 C 200.7 369.8 215.0 369.8 215.0 396.8 C 215.0 423.8 220.0 423.8 220.0 450.8 C 220.0 477.8 214.2 477.8 214.2 504.8 " fill="none" stroke="#8f5f6c" stroke-width="1.16" stroke-linecap="round" opacity="0.35"/><path d="M 479.3 89.0 C 479.3 111.9 492.3 111.9 492.3 134.7 C 492.3 157.6 511.9 157.6 511.9 180.4 C 511.9 203.3 535.0 203.3 535.0 226.1 C 535.0 249.0 558.9 249.0 558.9 271.8 C 558.9 294.7 580.9 294.7 580.9 317.6 C 580.9 340.4 599.0 340.4 599.0 363.3 C 599.0 386.1 611.3 386.1 611.3 409.0 C 611.3 431.8 616.3 431.8 616.3 454.7 C 616.3 477.5 612.7 477.5 612.7 500.4 " fill="none" stroke="#8f5f6c" stroke-width="1.52" stroke-linecap="round" opacity="0.18"/><path d="M 292.9 -8.9 C 292.9 22.2 300.0 22.2 300.0 53.4 C 300.0 84.5 311.4 84.5 311.4 115.6 C 311.4 146.7 325.0 146.7 325.0 177.9 C 325.0 209.0 339.2 209.0 339.2 240.1 C 339.2 271.2 352.6 271.2 352.6 302.4 C 352.6 333.5 363.8 333.5 363.8 364.6 C 363.8 395.7 371.7 395.7 371.7 426.9 C 371.7 458.0 375.3 458.0 375.3 489.1 C 375.3 520.2 373.8 520.2 373.8 551.4 " fill="none" stroke="#c98fa0" stroke-width="0.89" stroke-linecap="round" opacity="0.38"/><path d="M 550.7 -13.6 C 550.7 20.1 562.6 20.1 562.6 53.7 C 562.6 87.4 581.4 87.4 581.4 121.0 C 581.4 154.7 604.1 154.7 604.1 188.4 C 604.1 222.0 628.0 222.0 628.0 255.7 C 628.0 289.3 650.4 289.3 650.4 323.0 C 650.4 356.6 669.2 356.6 669.2 390.3 C 669.2 424.0 682.3 424.0 682.3 457.6 C 682.3 491.3 688.0 491.3 688.0 524.9 C 688.0 558.6 685.2 558.6 685.2 592.2 " fill="none" stroke="#f6e2e9" stroke-width="0.60" stroke-linecap="round" opacity="0.69"/><path d="M 283.0 -10.6 C 283.0 17.8 298.1 17.8 298.1 46.1 C 298.1 74.5 320.2 74.5 320.2 102.9 C 320.2 131.3 345.6 131.3 345.6 159.6 C 345.6 188.0 371.4 188.0 371.4 216.4 C 371.4 244.8 394.7 244.8 394.7 273.1 C 394.7 301.5 413.4 301.5 413.4 329.9 C 413.4 358.3 425.5 358.3 425.5 386.7 C 425.5 415.0 429.5 415.0 429.5 443.4 C 429.5 471.8 424.1 471.8 424.1 500.2 " fill="none" stroke="#c98fa0" stroke-width="1.87" stroke-linecap="round" opacity="0.38"/><path d="M -67.6 -16.6 C -67.6 12.3 -54.5 12.3 -54.5 41.2 C -54.5 70.0 -35.8 70.0 -35.8 98.9 C -35.8 127.8 -14.3 127.8 -14.3 156.7 C -14.3 185.6 7.2 185.6 7.2 214.5 C 7.2 243.3 26.5 243.3 26.5 272.2 C 26.5 301.1 41.7 301.1 41.7 330.0 C 41.7 358.9 51.2 358.9 51.2 387.7 C 51.2 416.6 54.0 416.6 54.0 445.5 C 54.0 474.4 48.9 474.4 48.9 503.3 " fill="none" stroke="#8f5f6c" stroke-width="0.69" stroke-linecap="round" opacity="0.41"/><path d="M 705.2 75.6 C 705.2 100.8 719.4 100.8 719.4 125.9 C 719.4 151.1 738.9 151.1 738.9 176.2 C 738.9 201.4 760.3 201.4 760.3 226.5 C 760.3 251.7 781.1 251.7 781.1 276.8 C 781.1 302.0 799.2 302.0 799.2 327.2 C 799.2 352.3 812.9 352.3 812.9 377.5 C 812.9 402.6 821.0 402.6 821.0 427.8 C 821.0 452.9 822.4 452.9 822.4 478.1 C 822.4 503.2 816.1 503.2 816.1 528.4 " fill="none" stroke="#c98fa0" stroke-width="2.39" stroke-linecap="round" opacity="0.48"/><path d="M 655.6 -6.2 C 655.6 25.7 665.3 25.7 665.3 57.6 C 665.3 89.5 679.8 89.5 679.8 121.4 C 679.8 153.3 696.4 153.3 696.4 185.3 C 696.4 217.2 713.3 217.2 713.3 249.1 C 713.3 281.0 728.7 281.0 728.7 312.9 C 728.7 344.8 741.3 344.8 741.3 376.8 C 741.3 408.7 749.7 408.7 749.7 440.6 C 749.7 472.5 753.1 472.5 753.1 504.4 C 753.1 536.3 750.2 536.3 750.2 568.3 " fill="none" stroke="#f6e2e9" stroke-width="2.28" stroke-linecap="round" opacity="0.44"/><path d="M 213.6 -12.3 C 213.6 16.2 227.0 16.2 227.0 44.8 C 227.0 73.3 246.8 73.3 246.8 101.8 C 246.8 130.4 270.2 130.4 270.2 158.9 C 270.2 187.4 294.2 187.4 294.2 216.0 C 294.2 244.5 316.2 244.5 316.2 273.0 C 316.2 301.6 334.0 301.6 334.0 330.1 C 334.0 358.6 345.9 358.6 345.9 387.2 C 345.9 415.7 350.2 415.7 350.2 444.2 C 350.2 472.8 345.9 472.8 345.9 501.3 " fill="none" stroke="#e8c2cd" stroke-width="1.45" stroke-linecap="round" opacity="0.21"/><path d="M 634.4 -6.6 C 634.4 26.7 648.1 26.7 648.1 60.1 C 648.1 93.4 664.8 93.4 664.8 126.8 C 664.8 160.1 681.8 160.1 681.8 193.4 C 681.8 226.8 697.0 226.8 697.0 260.1 C 697.0 293.5 708.9 293.5 708.9 326.8 C 708.9 360.2 716.5 360.2 716.5 393.5 C 716.5 426.9 719.0 426.9 719.0 460.2 C 719.0 493.6 716.2 493.6 716.2 526.9 C 716.2 560.2 707.9 560.2 707.9 593.6 " fill="none" stroke="#c98fa0" stroke-width="1.47" stroke-linecap="round" opacity="0.51"/><path d="M 487.6 30.6 C 487.6 59.2 501.7 59.2 501.7 87.9 C 501.7 116.5 519.8 116.5 519.8 145.2 C 519.8 173.8 539.0 173.8 539.0 202.5 C 539.0 231.2 557.0 231.2 557.0 259.8 C 557.0 288.5 571.9 288.5 571.9 317.1 C 571.9 345.8 582.3 345.8 582.3 374.4 C 582.3 403.1 587.3 403.1 587.3 431.7 C 587.3 460.4 586.2 460.4 586.2 489.1 C 586.2 517.7 578.6 517.7 578.6 546.4 " fill="none" stroke="#8f5f6c" stroke-width="1.11" stroke-linecap="round" opacity="0.31"/><path d="M 616.4 89.2 C 616.4 114.2 629.3 114.2 629.3 139.2 C 629.3 164.2 651.0 164.2 651.0 189.1 C 651.0 214.1 678.0 214.1 678.0 239.1 C 678.0 264.1 706.9 264.1 706.9 289.0 C 706.9 314.0 734.8 314.0 734.8 339.0 C 734.8 364.0 758.7 364.0 758.7 389.0 C 758.7 413.9 776.3 413.9 776.3 438.9 C 776.3 463.9 785.4 463.9 785.4 488.9 C 785.4 513.8 783.9 513.8 783.9 538.8 " fill="none" stroke="#f6e2e9" stroke-width="1.64" stroke-linecap="round" opacity="0.65"/><path d="M 27.3 50.9 C 27.3 79.0 37.5 79.0 37.5 107.0 C 37.5 135.0 55.1 135.0 55.1 163.1 C 55.1 191.1 77.2 191.1 77.2 219.2 C 77.2 247.2 101.1 247.2 101.1 275.2 C 101.1 303.3 124.3 303.3 124.3 331.3 C 124.3 359.3 144.5 359.3 144.5 387.4 C 144.5 415.4 159.4 415.4 159.4 443.5 C 159.4 471.5 167.2 471.5 167.2 499.5 C 167.2 527.6 166.4 527.6 166.4 555.6 " fill="none" stroke="#8f5f6c" stroke-width="1.42" stroke-linecap="round" opacity="0.39"/><path d="M 28.5 -5.6 C 28.5 26.9 39.2 26.9 39.2 59.5 C 39.2 92.0 54.8 92.0 54.8 124.5 C 54.8 157.0 72.9 157.0 72.9 189.5 C 72.9 222.0 91.2 222.0 91.2 254.5 C 91.2 287.0 107.8 287.0 107.8 319.5 C 107.8 352.1 121.1 352.1 121.1 384.6 C 121.1 417.1 129.9 417.1 129.9 449.6 C 129.9 482.1 133.2 482.1 133.2 514.6 C 133.2 547.1 129.7 547.1 129.7 579.6 " fill="none" stroke="#e8c2cd" stroke-width="2.18" stroke-linecap="round" opacity="0.37"/></g>
<rect width="800" height="560" fill="url(#fade_service-coupe-femme)"/>
<rect width="800" height="560" fill="url(#vig_service-coupe-femme)"/>
<rect width="800" height="560" filter="url(#grain_service-coupe-femme)" opacity="0.05"/>
</svg>