<svg viewBox="0 0 800 560" xmlns="http://www.w3.org/2000/svg" preserveAspectRatio="xMidYMid slice" role="img">
<defs>
<linearGradient id="bg_service-ombre" x1="0" y1="0" x2="0.3" y2="1">
<stop offset="0" stop-color="#170f0a"/><stop offset="1" stop-color="#0c0908"/>
</linearGradient>
<radialGradient id="glow_service-ombre" cx="0.67" cy="0.22" r="0.9">
<stop offset="0" stop-color="#c9794b" stop-opacity="0.42"/>
<stop offset="0.5" stop-color="#c9794b" stop-opacity="0.10"/>
<stop offset="1" stop-color="#c9794b" stop-opacity="0"/>
</radialGradient>
<radialGradient id="vig_service-ombre" cx="0.5" cy="0.45" r="0.75">
<stop offset="0.55" stop-color="#000000" stop-opacity="0"/>
<stop offset="1" stop-color="#000000" stop-opacity="0.55"/>
</radialGradient>
<linearGradient id="fade_service-ombre" x1="0" y1="0" x2="0" y2="1">
<stop offset="0" stop-color="#0c0908" stop-opacity="0.85"/>
<stop offset="0.16" stop-color="#0c0908" stop-opacity="0"/>
<stop offset="0.84" stop-color="#0c0908" stop-opacity="0"/>
<stop offset="1" stop-color="#0c0908" stop-opacity="0.9"/>
</linearGradient>
<filter id="blur_service-ombre"><feGaussianBlur stdDeviation="6"/></filter>
<filter id="grain_service-ombre"><feTurbulence type="fractalNoise" baseFrequency="0.9" numOctaves="2" stitchTiles="stitch"/>
<feColorMatrix type="matrix" values="0 0 0 0 0  0 0 0 0 0  0 0 0 0 0  0 0 0 0.5 0"/></filter>
</defs>
<rect width="800" height="560" fill="url(#bg_service-ombre)"/>
<rect width="800" height="560" fill="url(#glow_service-ombre)"/>
<g filter="url(#blur_service-ombre)"><path d="M 835.7 77.8 C 835.7 105.8 856.3 105.8 856.3 133.7 C 856.3 161.7 888.0 161.7 888.0 189.6 C 888.0 217.6 925.6 217.6 925.6 245.5 C 925.6 273.5 964.4 273.5 964.4 301.4 C 964.4 329.4 1000.5 329.4 1000.5 357.3 C 1000.5 385.3 1030.4 385.3 1030.4 413.2 C 1030.4 441.2 1051.2 441.2 1051.2 469.1 C 1051.2 497.1 1060.2 497.1 1060.2 525.0 C 1060.2 553.0 1055.0 553.0 1055.0 580.9 " fill="none" stroke="#f0cfb8" stroke-width="6.27" stroke-linecap="round" opacity="0.10"/><path d="M 415.9 -38.9 C 415.9 -2.8 428.3 -2.8 428.3 33.3 C 428.3 69.4 447.3 69.4 447.3 105.5 C 447.3 141.6 469.8 141.6 469.8 177.7 C 469.8 213.8 492.8 213.8 492.8 249.9 C 492.8 286.0 514.1 286.0 514.1 322.1 C 514.1 358.2 531.8 358.2 531.8 394.3 C 531.8 430.4 544.1 430.4 544.1 466.5 C 544.1 502.6 549.6 502.6 549.6 538.7 C 549.6 574.8 546.6 574.8 546.6 610.9 " fill="none" stroke="#8f4f2f" stroke-width="6.46" stroke-linecap="round" opacity="0.11"/><path d="M 739.7 43.5 C 739.7 73.6 761.0 73.6 761.0 103.7 C 761.0 133.8 795.5 133.8 795.5 163.9 C 795.5 194.0 837.8 194.0 837.8 224.1 C 837.8 254.2 882.5 254.2 882.5 284.3 C 882.5 314.4 925.1 314.4 925.1 344.5 C 925.1 374.6 961.1 374.6 961.1 404.7 C 961.1 434.8 986.8 434.8 986.8 464.9 C 986.8 495.0 999.2 495.0 999.2 525.1 C 999.2 555.2 995.2 555.2 995.2 585.3 " fill="none" stroke="#e8b28f" stroke-width="6.09" stroke-linecap="round" opacity="0.06"/><path d="M 823.4 -7.0 C 823.4 21.8 842.7 21.8 842.7 50.5 C 842.7 79.3 875.5 79.3 875.5 108.0 C 875.5 136.8 916.5 136.8 916.5 165.5 C 916.5 194.3 960.6 194.3 960.6 223.1 C 960.6 251.8 1003.1 251.8 1003.1 280.6 C 1003.1 309.3 1039.9 309.3 1039.9 338.1 C 1039.9 366.8 1067.1 366.8 1067.1 395.6 C 1067.1 424.3 1081.3 424.3 1081.3 453.1 C 1081.3 481.8 1079.5 481.8 1079.5 510.6 " fill="none" stroke="#e8b28f" stroke-width="7.93" stroke-linecap="round" opacity="0.14"/><path d="M 590.9 11.7 C 590.9 39.7 608.7 39.7 608.7 67.7 C 608.7 95.6 638.2 95.6 638.2 123.6 C 638.2 151.6 674.6 151.6 674.6 179.6 C 674.6 207.6 713.5 207.6 713.5 235.6 C 713.5 263.6 750.6 263.6 750.6 291.6 C 750.6 319.6 782.4 319.6 782.4 347.6 C 782.4 375.6 805.4 375.6 805.4 403.6 C 805.4 431.6 816.7 431.6 816.7 459.6 C 816.7 487.6 814.0 487.6 814.0 515.6 " fill="none" stroke="#f0cfb8" stroke-width="3.50" stroke-linecap="round" opacity="0.14"/><path d="M 227.6 58.2 C 227.6 82.4 240.3 82.4 240.3 106.6 C 240.3 130.9 265.4 130.9 265.4 155.1 C 265.4 179.3 298.5 179.3 298.5 203.6 C 298.5 227.8 335.6 227.8 335.6 252.1 C 335.6 276.3 372.8 276.3 372.8 300.5 C 372.8 324.8 406.5 324.8 406.5 349.0 C 406.5 373.2 433.3 373.2 433.3 397.5 C 433.3 421.7 449.8 421.7 449.8 445.9 C 449.8 470.2 452.8 470.2 452.8 494.4 " fill="none" stroke="#8f4f2f" stroke-width="4.92" stroke-linecap="round" opacity="0.05"/><path d="M 302.7 -21.1 C 302.7 12.7 316.8 12.7 316.8 46.4 C 316.8 80.2 343.3 80.2 343.3 113.9 C 343.3 147.6 377.7 147.6 377.7 181.4 C 377.7 215.1 415.6 215.1 415.6 248.9 C 415.6 282.6 453.3 282.6 453.3 316.3 C 453.3 350.1 487.0 350.1 487.0 383.8 C 487.0 417.6 513.4 417.6 513.4 451.3 C 513.4 485.0 529.1 485.0 529.1 518.8 C 529.1 552.5 530.9 552.5 530.9 586.3 " fill="none" stroke="#f7e3d4" stroke-width="4.62" stroke-linecap="round" opacity="0.26"/><path d="M 166.7 -24.1 C 166.7 4.6 177.9 4.6 177.9 33.4 C 177.9 62.1 197.9 62.1 197.9 90.8 C 197.9 119.5 223.3 119.5 223.3 148.3 C 223.3 177.0 250.8 177.0 250.8 205.7 C 250.8 234.4 277.8 234.4 277.8 263.1 C 277.8 291.9 301.6 291.9 301.6 320.6 C 301.6 349.3 319.8 349.3 319.8 378.0 C 319.8 406.8 330.3 406.8 330.3 435.5 C 330.3 464.2 330.6 464.2 330.6 492.9 " fill="none" stroke="#f0cfb8" stroke-width="6.35" stroke-linecap="round" opacity="0.05"/><path d="M 463.9 69.3 C 463.9 96.2 480.0 96.2 480.0 123.1 C 480.0 150.0 508.5 150.0 508.5 176.9 C 508.5 203.9 544.5 203.9 544.5 230.8 C 544.5 257.7 583.6 257.7 583.6 284.6 C 583.6 311.5 621.8 311.5 621.8 338.4 C 621.8 365.3 655.2 365.3 655.2 392.2 C 655.2 419.1 680.7 419.1 680.7 446.1 C 680.7 473.0 694.9 473.0 694.9 499.9 C 694.9 526.8 694.7 526.8 694.7 553.7 " fill="none" stroke="#e8b28f" stroke-width="7.90" stroke-linecap="round" opacity="0.08"/><path d="M 193.1 41.0 C 193.1 70.4 210.8 70.4 210.8 99.8 C 210.8 129.2 239.0 129.2 239.0 158.6 C 239.0 188.1 272.9 188.1 272.9 217.5 C 272.9 246.9 308.5 246.9 308.5 276.3 C 308.5 305.7 341.9 305.7 341.9 335.2 C 341.9 364.6 370.0 364.6 370.0 394.0 C 370.0 423.4 390.1 423.4 390.1 452.8 C 390.1 482.2 399.5 482.2 399.5 511.7 C 399.5 541.1 395.9 541.1 395.9 570.5 " fill="none" stroke="#f0cfb8" stroke-width="6.30" stroke-linecap="round" opacity="0.10"/><path d="M 745.3 10.4 C 745.3 42.7 761.3 42.7 761.3 75.0 C 761.3 107.4 788.9 107.4 788.9 139.7 C 788.9 172.0 823.4 172.0 823.4 204.4 C 823.4 236.7 860.7 236.7 860.7 269.1 C 860.7 301.4 896.8 301.4 896.8 333.7 C 896.8 366.1 928.3 366.1 928.3 398.4 C 928.3 430.7 951.9 430.7 951.9 463.1 C 951.9 495.4 964.8 495.4 964.8 527.8 C 964.8 560.1 964.1 560.1 964.1 592.4 " fill="none" stroke="#c9794b" stroke-width="6.86" stroke-linecap="round" opacity="0.13"/><path d="M 327.7 15.9 C 327.7 47.7 338.7 47.7 338.7 79.5 C 338.7 111.4 359.6 111.4 359.6 143.2 C 359.6 175.0 386.7 175.0 386.7 206.9 C 386.7 238.7 416.7 238.7 416.7 270.6 C 416.7 302.4 446.6 302.4 446.6 334.2 C 446.6 366.1 473.4 366.1 473.4 397.9 C 473.4 429.8 494.3 429.8 494.3 461.6 C 494.3 493.4 506.9 493.4 506.9 525.3 C 506.9 557.1 508.5 557.1 508.5 588.9 " fill="none" stroke="#8f4f2f" stroke-width="6.98" stroke-linecap="round" opacity="0.06"/><path d="M 801.3 80.7 C 801.3 103.0 817.3 103.0 817.3 125.4 C 817.3 147.7 844.5 147.7 844.5 170.1 C 844.5 192.4 878.2 192.4 878.2 214.7 C 878.2 237.1 914.2 237.1 914.2 259.4 C 914.2 281.8 948.9 281.8 948.9 304.1 C 948.9 326.5 978.9 326.5 978.9 348.8 C 978.9 371.1 1001.3 371.1 1001.3 393.5 C 1001.3 415.8 1013.4 415.8 1013.4 438.2 C 1013.4 460.5 1012.2 460.5 1012.2 482.8 " fill="none" stroke="#e8b28f" stroke-width="5.44" stroke-linecap="round" opacity="0.05"/><path d="M 486.7 46.2 C 486.7 75.3 505.2 75.3 505.2 104.3 C 505.2 133.3 538.5 133.3 538.5 162.3 C 538.5 191.4 581.3 191.4 581.3 220.4 C 581.3 249.4 628.2 249.4 628.2 278.5 C 628.2 307.5 674.3 307.5 674.3 336.5 C 674.3 365.6 715.0 365.6 715.0 394.6 C 715.0 423.6 745.9 423.6 745.9 452.6 C 745.9 481.7 763.3 481.7 763.3 510.7 C 763.3 539.7 763.7 539.7 763.7 568.8 " fill="none" stroke="#f0cfb8" stroke-width="5.98" stroke-linecap="round" opacity="0.12"/><path d="M 67.7 -38.3 C 67.7 -2.9 80.6 -2.9 80.6 32.6 C 80.6 68.1 101.5 68.1 101.5 103.5 C 101.5 139.0 126.9 139.0 126.9 174.5 C 126.9 209.9 153.5 209.9 153.5 245.4 C 153.5 280.9 178.8 280.9 178.8 316.3 C 178.8 351.8 200.1 351.8 200.1 387.3 C 200.1 422.7 215.6 422.7 215.6 458.2 C 215.6 493.7 223.2 493.7 223.2 529.1 C 223.2 564.6 221.0 564.6 221.0 600.0 " fill="none" stroke="#f0cfb8" stroke-width="5.81" stroke-linecap="round" opacity="0.12"/><path d="M 688.2 -18.7 C 688.2 14.1 708.6 14.1 708.6 46.9 C 708.6 79.6 742.2 79.6 742.2 112.4 C 742.2 145.2 783.5 145.2 783.5 177.9 C 783.5 210.7 827.5 210.7 827.5 243.5 C 827.5 276.3 869.5 276.3 869.5 309.0 C 869.5 341.8 905.4 341.8 905.4 374.6 C 905.4 407.3 931.5 407.3 931.5 440.1 C 931.5 472.9 944.6 472.9 944.6 505.7 C 944.6 538.4 941.7 538.4 941.7 571.2 " fill="none" stroke="#e8b28f" stroke-width="6.27" stroke-linecap="round" opacity="0.10"/><path d="M 834.7 47.9 C 834.7 74.1 848.4 74.1 848.4 100.3 C 848.4 126.6 870.5 126.6 870.5 152.8 C 870.5 179.0 897.4 179.0 897.4 205.2 C 897.4 231.4 925.7 231.4 925.7 257.6 C 925.7 283.9 952.6 283.9 952.6 310.1 C 952.6 336.3 975.3 336.3 975.3 362.5 C 975.3 388.7 991.6 388.7 991.6 415.0 C 991.6 441.2 999.5 441.2 999.5 467.4 C 999.5 493.6 997.1 493.6 997.1 519.8 " fill="none" stroke="#f0cfb8" stroke-width="7.65" stroke-linecap="round" opacity="0.10"/><path d="M 548.1 59.0 C 548.1 83.2 563.1 83.2 563.1 107.4 C 563.1 131.7 590.9 131.7 590.9 155.9 C 590.9 180.1 627.2 180.1 627.2 204.4 C 627.2 228.6 667.4 228.6 667.4 252.9 C 667.4 277.1 707.3 277.1 707.3 301.3 C 707.3 325.6 742.8 325.6 742.8 349.8 C 742.8 374.1 770.3 374.1 770.3 398.3 C 770.3 422.5 786.4 422.5 786.4 446.8 C 786.4 471.0 787.8 471.0 787.8 495.2 " fill="none" stroke="#c9794b" stroke-width="4.20" stroke-linecap="round" opacity="0.08"/><path d="M 107.9 16.2 C 107.9 47.3 126.8 47.3 126.8 78.5 C 126.8 109.6 154.8 109.6 154.8 140.8 C 154.8 171.9 187.5 171.9 187.5 203.1 C 187.5 234.2 221.0 234.2 221.0 265.4 C 221.0 296.5 251.7 296.5 251.7 327.7 C 251.7 358.8 276.5 358.8 276.5 390.0 C 276.5 421.2 292.9 421.2 292.9 452.3 C 292.9 483.5 298.8 483.5 298.8 514.6 C 298.8 545.8 292.5 545.8 292.5 576.9 " fill="none" stroke="#c9794b" stroke-width="4.37" stroke-linecap="round" opacity="0.09"/><path d="M 629.4 -4.5 C 629.4 30.0 643.7 30.0 643.7 64.4 C 643.7 98.8 666.1 98.8 666.1 133.3 C 666.1 167.7 692.8 167.7 692.8 202.1 C 692.8 236.5 720.4 236.5 720.4 271.0 C 720.4 305.4 746.2 305.4 746.2 339.8 C 746.2 374.2 767.7 374.2 767.7 408.7 C 767.7 443.1 782.9 443.1 782.9 477.5 C 782.9 511.9 789.9 511.9 789.9 546.4 C 789.9 580.8 786.8 580.8 786.8 615.2 " fill="none" stroke="#c9794b" stroke-width="3.79" stroke-linecap="round" opacity="0.12"/></g>
<g><path d="M 693.8 -25.7 C 693.8 8.1 712.6 8.1 712.6 41.9 C 712.6 75.7 746.7 75.7 746.7 109.4 C 746.7 143.2 790.4 143.2 790.4 177.0 C 790.4 210.8 838.6 210.8 838.6 244.6 C 838.6 278.4 885.9 278.4 885.9 312.2 C 885.9 346.0 927.6 346.0 927.6 379.8 C 927.6 413.6 959.4 413.6 959.4 447.4 C 959.4 481.1 977.3 481.1 977.3 514.9 C 977.3 548.7 977.7 548.7 977.7 582.5 " fill="none" stroke="#c9794b" stroke-width="1.34" stroke-linecap="round" opacity="0.51"/><path d="M 813.6 -10.9 C 813.6 23.2 827.8 23.2 827.8 57.2 C 827.8 91.2 854.9 91.2 854.9 125.3 C 854.9 159.3 890.2 159.3 890.2 193.4 C 890.2 227.4 929.5 227.4 929.5 261.4 C 929.5 295.5 968.6 295.5 968.6 329.5 C 968.6 363.5 1003.6 363.5 1003.6 397.6 C 1003.6 431.6 1030.7 431.6 1030.7 465.6 C 1030.7 499.7 1046.7 499.7 1046.7 533.7 C 1046.7 567.8 1048.5 567.8 1048.5 601.8 " fill="none" stroke="#f7e3d4" stroke-width="1.78" stroke-linecap="round" opacity="0.36"/><path d="M 352.1 -9.6 C 352.1 24.2 367.5 24.2 367.5 58.0 C 367.5 91.9 397.0 91.9 397.0 125.7 C 397.0 159.6 435.6 159.6 435.6 193.4 C 435.6 227.2 478.7 227.2 478.7 261.1 C 478.7 294.9 521.5 294.9 521.5 328.7 C 521.5 362.6 559.9 362.6 559.9 396.4 C 559.9 430.3 589.7 430.3 589.7 464.1 C 589.7 497.9 607.4 497.9 607.4 531.8 C 607.4 565.6 609.4 565.6 609.4 599.5 " fill="none" stroke="#e8b28f" stroke-width="1.91" stroke-linecap="round" opacity="0.45"/><path d="M 101.7 -5.5 C 101.7 23.2 122.2 23.2 122.2 51.9 C 122.2 80.6 153.8 80.6 153.8 109.3 C 153.8 137.9 191.7 137.9 191.7 166.6 C 191.7 195.3 231.2 195.3 231.2 224.0 C 231.2 252.7 268.0 252.7 268.0 281.4 C 268.0 310.1 298.4 310.1 298.4 338.7 C 298.4 367.4 319.3 367.4 319.3 396.1 C 319.3 424.8 328.1 424.8 328.1 453.5 C 328.1 482.2 322.7 482.2 322.7 510.9 " fill="none" stroke="#8f4f2f" stroke-width="2.16" stroke-linecap="round" opacity="0.41"/><path d="M 235.0 0.6 C 235.0 28.7 246.6 28.7 246.6 56.8 C 246.6 84.9 267.6 84.9 267.6 113.0 C 267.6 141.1 294.4 141.1 294.4 169.2 C 294.4 197.3 323.7 197.3 323.7 225.4 C 323.7 253.5 352.4 253.5 352.4 281.6 C 352.4 309.7 377.8 309.7 377.8 337.8 C 377.8 366.0 397.1 366.0 397.1 394.1 C 397.1 422.2 408.1 422.2 408.1 450.3 C 408.1 478.4 408.4 478.4 408.4 506.5 " fill="none" stroke="#c9794b" stroke-width="1.81" stroke-linecap="round" opacity="0.44"/><path d="M 524.2 40.8 C 524.2 70.6 536.8 70.6 536.8 100.4 C 536.8 130.2 557.2 130.2 557.2 160.0 C 557.2 189.8 581.9 189.8 581.9 219.6 C 581.9 249.4 607.8 249.4 607.8 279.2 C 607.8 309.0 632.4 309.0 632.4 338.8 C 632.4 368.6 653.3 368.6 653.3 398.4 C 653.3 428.2 668.6 428.2 668.6 458.0 C 668.6 487.8 676.3 487.8 676.3 517.6 C 676.3 547.4 674.4 547.4 674.4 577.2 " fill="none" stroke="#8f4f2f" stroke-width="1.02" stroke-linecap="round" opacity="0.20"/><path d="M 477.7 -41.8 C 477.7 -8.7 489.8 -8.7 489.8 24.3 C 489.8 57.4 512.2 57.4 512.2 90.5 C 512.2 123.6 541.2 123.6 541.2 156.6 C 541.2 189.7 573.1 189.7 573.1 222.8 C 573.1 255.9 604.7 255.9 604.7 288.9 C 604.7 322.0 632.8 322.0 632.8 355.1 C 632.8 388.2 654.6 388.2 654.6 421.3 C 654.6 454.3 667.4 454.3 667.4 487.4 C 667.4 520.5 668.6 520.5 668.6 553.6 " fill="none" stroke="#8f4f2f" stroke-width="1.32" stroke-linecap="round" opacity="0.42"/><path d="M -51.0 70.5 C -51.0 94.8 -33.1 94.8 -33.1 119.2 C -33.1 143.5 -7.5 143.5 -7.5 167.8 C -7.5 192.1 21.8 192.1 21.8 216.5 C 21.8 240.8 51.2 240.8 51.2 265.1 C 51.2 289.5 77.6 289.5 77.6 313.8 C 77.6 338.1 98.5 338.1 98.5 362.5 C 98.5 386.8 112.0 386.8 112.0 411.1 C 112.0 435.5 116.2 435.5 116.2 459.8 C 116.2 484.1 109.7 484.1 109.7 508.4 " fill="none" stroke="#c9794b" stroke-width="1.03" stroke-linecap="round" opacity="0.20"/><path d="M 534.9 -37.9 C 534.9 -6.2 549.8 -6.2 549.8 25.5 C 549.8 57.1 575.8 57.1 575.8 88.8 C 575.8 120.5 608.3 120.5 608.3 152.2 C 608.3 183.9 643.4 183.9 643.4 215.5 C 643.4 247.2 677.4 247.2 677.4 278.9 C 677.4 310.6 707.2 310.6 707.2 342.2 C 707.2 373.9 729.7 373.9 729.7 405.6 C 729.7 437.3 742.1 437.3 742.1 469.0 C 742.1 500.6 741.6 500.6 741.6 532.3 " fill="none" stroke="#c9794b" stroke-width="1.75" stroke-linecap="round" opacity="0.37"/><path d="M 43.0 -13.1 C 43.0 19.6 56.5 19.6 56.5 52.3 C 56.5 85.0 82.4 85.0 82.4 117.8 C 82.4 150.5 116.2 150.5 116.2 183.2 C 116.2 216.0 153.9 216.0 153.9 248.7 C 153.9 281.4 191.3 281.4 191.3 314.2 C 191.3 346.9 224.9 346.9 224.9 379.6 C 224.9 412.3 251.1 412.3 251.1 445.1 C 251.1 477.8 266.8 477.8 266.8 510.5 C 266.8 543.3 268.8 543.3 268.8 576.0 " fill="none" stroke="#f7e3d4" stroke-width="1.14" stroke-linecap="round" opacity="0.59"/><path d="M 482.2 -42.4 C 482.2 -7.4 502.3 -7.4 502.3 27.6 C 502.3 62.7 534.6 62.7 534.6 97.7 C 534.6 132.7 573.8 132.7 573.8 167.8 C 573.8 202.8 615.0 202.8 615.0 237.8 C 615.0 272.9 654.0 272.9 654.0 307.9 C 654.0 342.9 686.9 342.9 686.9 378.0 C 686.9 413.0 710.6 413.0 710.6 448.0 C 710.6 483.1 722.0 483.1 722.0 518.1 C 722.0 553.1 718.4 553.1 718.4 588.1 " fill="none" stroke="#f7e3d4" stroke-width="1.83" stroke-linecap="round" opacity="0.52"/><path d="M 442.8 60.2 C 442.8 88.6 458.6 88.6 458.6 117.0 C 458.6 145.4 481.8 145.4 481.8 173.9 C 481.8 202.3 508.8 202.3 508.8 230.7 C 508.8 259.1 536.2 259.1 536.2 287.5 C 536.2 315.9 561.2 315.9 561.2 344.4 C 561.2 372.8 581.3 372.8 581.3 401.2 C 581.3 429.6 594.5 429.6 594.5 458.0 C 594.5 486.4 599.2 486.4 599.2 514.8 C 599.2 543.3 594.0 543.3 594.0 571.7 " fill="none" stroke="#c9794b" stroke-width="0.64" stroke-linecap="round" opacity="0.28"/><path d="M 60.2 77.7 C 60.2 103.9 80.8 103.9 80.8 130.1 C 80.8 156.3 117.1 156.3 117.1 182.5 C 117.1 208.6 163.1 208.6 163.1 234.8 C 163.1 261.0 213.3 261.0 213.3 287.2 C 213.3 313.4 262.2 313.4 262.2 339.6 C 262.2 365.8 305.0 365.8 305.0 392.0 C 305.0 418.2 337.2 418.2 337.2 444.4 C 337.2 470.6 354.8 470.6 354.8 496.7 C 354.8 522.9 354.2 522.9 354.2 549.1 " fill="none" stroke="#e8b28f" stroke-width="0.92" stroke-linecap="round" opacity="0.24"/><path d="M 150.2 40.3 C 150.2 71.3 163.5 71.3 163.5 102.3 C 163.5 133.3 192.0 133.3 192.0 164.3 C 192.0 195.3 230.6 195.3 230.6 226.3 C 230.6 257.3 274.6 257.3 274.6 288.3 C 274.6 319.3 319.4 319.3 319.4 350.4 C 319.4 381.4 360.7 381.4 360.7 412.4 C 360.7 443.4 394.1 443.4 394.1 474.4 C 394.1 505.4 415.5 505.4 415.5 536.4 C 415.5 567.4 420.9 567.4 420.9 598.4 " fill="none" stroke="#8f4f2f" stroke-width="2.23" stroke-linecap="round" opacity="0.42"/><path d="M 607.5 47.6 C 607.5 76.8 625.5 76.8 625.5 106.0 C 625.5 135.2 654.8 135.2 654.8 164.4 C 654.8 193.6 690.4 193.6 690.4 222.8 C 690.4 252.0 728.0 252.0 728.0 281.2 C 728.0 310.4 763.7 310.4 763.7 339.5 C 763.7 368.7 794.1 368.7 794.1 397.9 C 794.1 427.1 816.2 427.1 816.2 456.3 C 816.2 485.5 827.2 485.5 827.2 514.7 C 827.2 543.9 824.4 543.9 824.4 573.1 " fill="none" stroke="#f7e3d4" stroke-width="2.32" stroke-linecap="round" opacity="0.50"/><path d="M 766.4 77.3 C 766.4 106.5 781.5 106.5 781.5 135.7 C 781.5 164.9 809.7 164.9 809.7 194.0 C 809.7 223.2 846.1 223.2 846.1 252.4 C 846.1 281.6 886.4 281.6 886.4 310.8 C 886.4 340.0 926.2 340.0 926.2 369.1 C 926.2 398.3 961.7 398.3 961.7 427.5 C 961.7 456.7 989.3 456.7 989.3 485.9 C 989.3 515.1 1005.5 515.1 1005.5 544.3 C 1005.5 573.4 1007.0 573.4 1007.0 602.6 " fill="none" stroke="#8f4f2f" stroke-width="2.34" stroke-linecap="round" opacity="0.28"/><path d="M 433.9 9.4 C 433.9 40.6 449.2 40.6 449.2 71.7 C 449.2 102.8 480.7 102.8 480.7 134.0 C 480.7 165.1 523.0 165.1 523.0 196.3 C 523.0 227.4 570.9 227.4 570.9 258.5 C 570.9 289.7 619.4 289.7 619.4 320.8 C 619.4 352.0 663.6 352.0 663.6 383.1 C 663.6 414.3 699.0 414.3 699.0 445.4 C 699.0 476.5 721.0 476.5 721.0 507.7 C 721.0 538.8 725.6 538.8 725.6 570.0 " fill="none" stroke="#c9794b" stroke-width="1.98" stroke-linecap="round" opacity="0.18"/><path d="M 724.6 78.9 C 724.6 107.3 737.3 107.3 737.3 135.8 C 737.3 164.3 761.8 164.3 761.8 192.7 C 761.8 221.2 793.7 221.2 793.7 249.6 C 793.7 278.1 829.0 278.1 829.0 306.5 C 829.0 335.0 864.3 335.0 864.3 363.4 C 864.3 391.9 896.0 391.9 896.0 420.3 C 896.0 448.8 921.0 448.8 921.0 477.3 C 921.0 505.7 936.2 505.7 936.2 534.2 C 936.2 562.6 938.5 562.6 938.5 591.1 " fill="none" stroke="#e8b28f" stroke-width="1.73" stroke-linecap="round" opacity="0.41"/><path d="M 418.9 59.0 C 418.9 87.6 438.3 87.6 438.3 116.2 C 438.3 144.8 466.7 144.8 466.7 173.4 C 466.7 202.0 499.6 202.0 499.6 230.6 C 499.6 259.1 533.0 259.1 533.0 287.7 C 533.0 316.3 563.2 316.3 563.2 344.9 C 563.2 373.5 587.5 373.5 587.5 402.1 C 587.5 430.7 603.3 430.7 603.3 459.2 C 603.3 487.8 608.7 487.8 608.7 516.4 C 608.7 545.0 602.0 545.0 602.0 573.6 " fill="none" stroke="#e8b28f" stroke-width="2.10" stroke-linecap="round" opacity="0.20"/><path d="M -11.5 5.1 C -11.5 36.3 2.6 36.3 2.6 67.6 C 2.6 98.8 24.5 98.8 24.5 130.0 C 24.5 161.2 50.7 161.2 50.7 192.4 C 50.7 223.6 77.8 223.6 77.8 254.9 C 77.8 286.1 103.1 286.1 103.1 317.3 C 103.1 348.5 124.1 348.5 124.1 379.7 C 124.1 410.9 138.7 410.9 138.7 442.1 C 138.7 473.4 145.2 473.4 145.2 504.6 C 145.2 535.8 141.7 535.8 141.7 567.0 " fill="none" stroke="#f0cfb8" stroke-width="0.87" stroke-linecap="round" opacity="0.50"/><path d="M 689.3 -27.4 C 689.3 4.8 703.1 4.8 703.1 36.9 C 703.1 69.1 727.8 69.1 727.8 101.3 C 727.8 133.4 759.2 133.4 759.2 165.6 C 759.2 197.7 793.3 197.7 793.3 229.9 C 793.3 262.1 826.8 262.1 826.8 294.2 C 826.8 326.4 856.4 326.4 856.4 358.5 C 856.4 390.7 879.3 390.7 879.3 422.9 C 879.3 455.0 892.4 455.0 892.4 487.2 C 892.4 519.3 893.0 519.3 893.0 551.5 " fill="none" stroke="#c9794b" stroke-width="1.58" stroke-linecap="round" opacity="0.17"/><path d="M 365.6 -28.6 C 365.6 3.8 380.4 3.8 380.4 36.2 C 380.4 68.6 403.3 68.6 403.3 101.0 C 403.3 133.4 430.4 133.4 430.4 165.8 C 430.4 198.2 458.5 198.2 458.5 230.6 C 458.5 263.0 484.5 263.0 484.5 295.4 C 484.5 327.8 506.1 327.8 506.1 360.2 C 506.1 392.6 521.1 392.6 521.1 425.0 C 521.1 457.4 527.6 457.4 527.6 489.8 C 527.6 522.2 523.8 522.2 523.8 554.6 " fill="none" stroke="#8f4f2f" stroke-width="2.07" stroke-linecap="round" opacity="0.26"/><path d="M 456.6 67.9 C 456.6 98.1 477.4 98.1 477.4 128.3 C 477.4 158.5 515.0 158.5 515.0 188.7 C 515.0 218.9 563.3 218.9 563.3 249.1 C 563.3 279.3 616.3 279.3 616.3 309.5 C 616.3 339.7 668.5 339.7 668.5 369.9 C 668.5 400.1 714.5 400.1 714.5 430.3 C 714.5 460.5 749.6 460.5 749.6 490.7 C 749.6 520.9 769.3 520.9 769.3 551.1 C 769.3 581.3 769.8 581.3 769.8 611.5 " fill="none" stroke="#8f4f2f" stroke-width="1.44" stroke-linecap="round" opacity="0.25"/><path d="M -33.7 64.7 C -33.7 89.1 -14.0 89.1 -14.0 113.6 C -14.0 138.1 20.1 138.1 20.1 162.5 C 20.1 187.0 63.1 187.0 63.1 211.4 C 63.1 235.9 109.7 235.9 109.7 260.3 C 109.7 284.8 155.0 284.8 155.0 309.2 C 155.0 333.7 194.5 333.7 194.5 358.2 C 194.5 382.6 224.2 382.6 224.2 407.1 C 224.2 431.5 240.3 431.5 240.3 456.0 C 240.3 480.4 239.4 480.4 239.4 504.9 " fill="none" stroke="#f0cfb8" stroke-width="2.20" stroke-linecap="round" opacity="0.47"/><path d="M 768.3 27.8 C 768.3 55.7 788.5 55.7 788.5 83.6 C 788.5 111.5 820.5 111.5 820.5 139.4 C 820.5 167.4 859.3 167.4 859.3 195.3 C 859.3 223.2 900.2 223.2 900.2 251.1 C 900.2 279.0 938.8 279.0 938.8 307.0 C 938.8 334.9 971.2 334.9 971.2 362.8 C 971.2 390.7 994.1 390.7 994.1 418.6 C 994.1 446.5 1004.6 446.5 1004.6 474.5 C 1004.6 502.4 1000.2 502.4 1000.2 530.3 " fill="none" stroke="#f7e3d4" stroke-width="1.73" stroke-linecap="round" opacity="0.49"/><path d="M 47.1 69.6 C 47.1 96.3 64.1 96.3 64.1 123.1 C 64.1 149.8 97.5 149.8 97.5 176.5 C 97.5 203.3 141.7 203.3 141.7 230.0 C 141.7 256.7 191.1 256.7 191.1 283.5 C 191.1 310.2 240.6 310.2 240.6 337.0 C 240.6 363.7 285.2 363.7 285.2 390.4 C 285.2 417.2 320.3 417.2 320.3 443.9 C 320.3 470.6 341.4 470.6 341.4 497.4 C 341.4 524.1 344.6 524.1 344.6 550.9 " fill="none" stroke="#e8b28f" stroke-width="2.20" stroke-linecap="round" opacity="0.48"/><path d="M 844.6 -11.2 C 844.6 20.6 863.9 20.6 863.9 52.5 C 863.9 84.3 893.5 84.3 893.5 116.1 C 893.5 148.0 928.7 148.0 928.7 179.8 C 928.7 211.6 965.2 211.6 965.2 243.4 C 965.2 275.3 999.1 275.3 999.1 307.1 C 999.1 338.9 1027.1 338.9 1027.1 370.8 C 1027.1 402.6 1046.3 402.6 1046.3 434.4 C 1046.3 466.3 1054.3 466.3 1054.3 498.1 C 1054.3 529.9 1049.0 529.9 1049.0 561.8 " fill="none" stroke="#f0cfb8" stroke-width="1.14" stroke-linecap="round" opacity="0.50"/><path d="M 668.8 24.4 C 668.8 53.4 685.2 53.4 685.2 82.4 C 685.2 111.4 710.8 111.4 710.8 140.4 C 710.8 169.3 741.3 169.3 741.3 198.3 C 741.3 227.3 773.0 227.3 773.0 256.3 C 773.0 285.3 802.5 285.3 802.5 314.3 C 802.5 343.2 827.1 343.2 827.1 372.2 C 827.1 401.2 844.3 401.2 844.3 430.2 C 844.3 459.2 852.0 459.2 852.0 488.2 C 852.0 517.1 848.1 517.1 848.1 546.1 " fill="none" stroke="#e8b28f" stroke-width="0.84" stroke-linecap="round" opacity="0.34"/><path d="M 693.3 27.7 C 693.3 55.9 707.4 55.9 707.4 84.1 C 707.4 112.3 733.0 112.3 733.0 140.5 C 733.0 168.7 765.8 168.7 765.8 196.9 C 765.8 225.1 801.7 225.1 801.7 253.3 C 801.7 281.5 837.0 281.5 837.0 309.7 C 837.0 337.9 868.2 337.9 868.2 366.1 C 868.2 394.3 892.1 394.3 892.1 422.6 C 892.1 450.8 905.7 450.8 905.7 479.0 C 905.7 507.2 906.3 507.2 906.3 535.4 " fill="none" stroke="#e8b28f" stroke-width="0.77" stroke-linecap="round" opacity="0.46"/><path d="M 765.3 61.5 C 765.3 92.2 778.2 92.2 778.2 122.9 C 778.2 153.5 800.4 153.5 800.4 184.2 C 800.4 214.8 828.2 214.8 828.2 245.5 C 828.2 276.1 858.4 276.1 858.4 306.8 C 858.4 337.5 887.5 337.5 887.5 368.1 C 887.5 398.8 912.9 398.8 912.9 429.4 C 912.9 460.1 931.8 460.1 931.8 490.8 C 931.8 521.4 942.0 521.4 942.0 552.1 C 942.0 582.7 941.2 582.7 941.2 613.4 " fill="none" stroke="#c9794b" stroke-width="1.42" stroke-linecap="round" opacity="0.21"/><path d="M -49.3 43.4 C -49.3 68.5 -36.6 68.5 -36.6 93.7 C -36.6 118.8 -10.5 118.8 -10.5 143.9 C -10.5 169.0 24.7 169.0 24.7 194.1 C 24.7 219.2 64.4 219.2 64.4 244.3 C 64.4 269.4 104.7 269.4 104.7 294.5 C 104.7 319.6 141.4 319.6 141.4 344.7 C 141.4 369.9 170.9 369.9 170.9 395.0 C 170.9 420.1 189.5 420.1 189.5 445.2 C 189.5 470.3 193.6 470.3 193.6 495.4 " fill="none" stroke="#c9794b" stroke-width="2.34" stroke-linecap="round" opacity="0.21"/><path d="M 397.6 23.3 C 397.6 50.7 413.8 50.7 413.8 78.1 C 413.8 105.6 446.3 105.6 446.3 133.0 C 446.3 160.4 489.6 160.4 489.6 187.8 C 489.6 215.2 538.5 215.2 538.5 242.7 C 538.5 270.1 587.7 270.1 587.7 297.5 C 587.7 324.9 632.4 324.9 632.4 352.3 C 632.4 379.8 667.8 379.8 667.8 407.2 C 667.8 434.6 689.6 434.6 689.6 462.0 C 689.6 489.4 693.6 489.4 693.6 516.9 " fill="none" stroke="#c9794b" stroke-width="0.89" stroke-linecap="round" opacity="0.18"/><path d="M -34.5 -31.2 C -34.5 -1.1 -17.1 -1.1 -17.1 29.0 C -17.1 59.1 10.9 59.1 10.9 89.2 C 10.9 119.3 45.0 119.3 45.0 149.4 C 45.0 179.5 81.0 179.5 81.0 209.6 C 81.0 239.7 115.0 239.7 115.0 269.8 C 115.0 299.9 143.8 299.9 143.8 330.0 C 143.8 360.1 164.3 360.1 164.3 390.2 C 164.3 420.3 174.0 420.3 174.0 450.4 C 174.0 480.5 170.6 480.5 170.6 510.6 " fill="none" stroke="#8f4f2f" stroke-width="2.15" stroke-linecap="round" opacity="0.38"/><path d="M 498.9 -26.0 C 498.9 3.6 517.9 3.6 517.9 33.3 C 517.9 62.9 548.4 62.9 548.4 92.6 C 548.4 122.2 585.8 122.2 585.8 151.9 C 585.8 181.5 625.5 181.5 625.5 211.2 C 625.5 240.8 663.0 240.8 663.0 270.5 C 663.0 300.1 694.7 300.1 694.7 329.8 C 694.7 359.4 717.2 359.4 717.2 389.1 C 717.2 418.7 727.7 418.7 727.7 448.4 C 727.7 478.0 723.8 478.0 723.8 507.7 " fill="none" stroke="#c9794b" stroke-width="1.29" stroke-linecap="round" opacity="0.37"/></g>
<rect width="800" height="560" fill="url(#fade_service-ombre)"/>
<rect width="800" height="560" fill="url(#vig_service-ombre)"/>
<rect width="800" height="560" filter="url(#grain_service-ombre)" opacity="0.05"/>
</svg>